<?xml version="1.0" encoding="UTF-8"?>
<!--Generator: Apple Native CoreSVG 341-->
<!DOCTYPE svg
PUBLIC "-//W3C//DTD SVG 1.1//EN"
       "http://www.w3.org/Graphics/SVG/1.1/DTD/svg11.dtd">
<svg version="1.1" xmlns="http://www.w3.org/2000/svg" xmlns:xlink="http://www.w3.org/1999/xlink" viewBox="0 0 3300 2200">
 <!--glyph: "", point size: 100.0, font version: "20.0d10e1", template writer version: "138.0.0"-->
 <style>.monochrome-0 {-sfsymbols-motion-group:5;-sfsymbols-layer-tags:78c5def494743d5b}
.monochrome-1 {-sfsymbols-motion-group:4;-sfsymbols-layer-tags:78c5def494743d5b}
.monochrome-2 {-sfsymbols-motion-group:3;-sfsymbols-layer-tags:78c5def494743d5b}
.monochrome-3 {-sfsymbols-motion-group:2;-sfsymbols-layer-tags:78c5def494743d5b}
.monochrome-4 {-sfsymbols-motion-group:1;-sfsymbols-layer-tags:78c5def494743d5b}
.monochrome-5 {-sfsymbols-motion-group:0;-sfsymbols-layer-tags:78c5def494743d5b}

.multicolor-0:custom {fill:#263238;-sfsymbols-motion-group:4;-sfsymbols-layer-tags:78c5def494743d5b}
.multicolor-1:custom {fill:#FFFFFF;-sfsymbols-motion-group:3;-sfsymbols-layer-tags:78c5def494743d5b}
.multicolor-2:custom {fill:#29B6F6;-sfsymbols-motion-group:2;-sfsymbols-layer-tags:78c5def494743d5b}
.multicolor-3:custom {fill:#40C4FF;-sfsymbols-motion-group:1;-sfsymbols-layer-tags:78c5def494743d5b}
.multicolor-4:custom {fill:#01579B;-sfsymbols-motion-group:0;-sfsymbols-layer-tags:78c5def494743d5b}

.hierarchical-0:primary {opacity:0.0;-sfsymbols-clear-behind:true;-sfsymbols-motion-group:5;-sfsymbols-layer-tags:78c5def494743d5b}
.hierarchical-1:tertiary {-sfsymbols-motion-group:4;-sfsymbols-layer-tags:78c5def494743d5b}
.hierarchical-2:tertiary {-sfsymbols-motion-group:3;-sfsymbols-layer-tags:78c5def494743d5b}
.hierarchical-3:primary {-sfsymbols-motion-group:2;-sfsymbols-layer-tags:78c5def494743d5b}
.hierarchical-4:primary {-sfsymbols-motion-group:1;-sfsymbols-layer-tags:78c5def494743d5b}
.hierarchical-5:secondary {-sfsymbols-motion-group:0;-sfsymbols-layer-tags:78c5def494743d5b}

.SFSymbolsPreviewWireframe {fill:none;opacity:1.0;stroke:black;stroke-width:0.5}
</style>
 <g id="Notes">
  <rect height="2200" id="artboard" style="fill:white;opacity:1" width="3300" x="0" y="0"/>
  <line style="fill:none;stroke:black;opacity:1;stroke-width:0.5;" x1="263" x2="3036" y1="292" y2="292"/>
  <text style="stroke:none;fill:black;font-family:sans-serif;font-size:13;font-weight:bold;" transform="matrix(1 0 0 1 263 322)">Weight/Scale Variations</text>
  <text style="stroke:none;fill:black;font-family:sans-serif;font-size:13;text-anchor:middle;" transform="matrix(1 0 0 1 559.711 322)">Ultralight</text>
  <text style="stroke:none;fill:black;font-family:sans-serif;font-size:13;text-anchor:middle;" transform="matrix(1 0 0 1 856.422 322)">Thin</text>
  <text style="stroke:none;fill:black;font-family:sans-serif;font-size:13;text-anchor:middle;" transform="matrix(1 0 0 1 1153.13 322)">Light</text>
  <text style="stroke:none;fill:black;font-family:sans-serif;font-size:13;text-anchor:middle;" transform="matrix(1 0 0 1 1449.84 322)">Regular</text>
  <text style="stroke:none;fill:black;font-family:sans-serif;font-size:13;text-anchor:middle;" transform="matrix(1 0 0 1 1746.56 322)">Medium</text>
  <text style="stroke:none;fill:black;font-family:sans-serif;font-size:13;text-anchor:middle;" transform="matrix(1 0 0 1 2043.27 322)">Semibold</text>
  <text style="stroke:none;fill:black;font-family:sans-serif;font-size:13;text-anchor:middle;" transform="matrix(1 0 0 1 2339.98 322)">Bold</text>
  <text style="stroke:none;fill:black;font-family:sans-serif;font-size:13;text-anchor:middle;" transform="matrix(1 0 0 1 2636.69 322)">Heavy</text>
  <text style="stroke:none;fill:black;font-family:sans-serif;font-size:13;text-anchor:middle;" transform="matrix(1 0 0 1 2933.4 322)">Black</text>
  <line style="fill:none;stroke:black;opacity:1;stroke-width:0.5;" x1="263" x2="3036" y1="1903" y2="1903"/>
  <g transform="matrix(0.2 0 0 0.2 263 1933)">
   <path d="m46.2402 4.15039c21.7773 0 39.4531-17.627 39.4531-39.4043s-17.6758-39.4043-39.4531-39.4043c-21.7285 0-39.4043 17.627-39.4043 39.4043s17.6758 39.4043 39.4043 39.4043Zm0-7.42188c-17.6758 0-31.9336-14.3066-31.9336-31.9824s14.2578-31.9824 31.9336-31.9824 31.9824 14.3066 31.9824 31.9824-14.3066 31.9824-31.9824 31.9824Zm-17.9688-31.9824c0 2.14844 1.51367 3.61328 3.75977 3.61328h10.498v10.5957c0 2.19727 1.46484 3.71094 3.61328 3.71094 2.24609 0 3.71094-1.51367 3.71094-3.71094v-10.5957h10.5957c2.19727 0 3.71094-1.46484 3.71094-3.61328 0-2.19727-1.51367-3.71094-3.71094-3.71094h-10.5957v-10.5469c0-2.24609-1.46484-3.75977-3.71094-3.75977-2.14844 0-3.61328 1.51367-3.61328 3.75977v10.5469h-10.498c-2.24609 0-3.75977 1.51367-3.75977 3.71094Z"/>
  </g>
  <g transform="matrix(0.2 0 0 0.2 281.506 1933)">
   <path d="m58.5449 14.5508c27.4902 0 49.8047-22.3145 49.8047-49.8047s-22.3145-49.8047-49.8047-49.8047-49.8047 22.3145-49.8047 49.8047 22.3145 49.8047 49.8047 49.8047Zm0-8.30078c-22.9492 0-41.5039-18.5547-41.5039-41.5039s18.5547-41.5039 41.5039-41.5039 41.5039 18.5547 41.5039 41.5039-18.5547 41.5039-41.5039 41.5039Zm-22.6562-41.5039c0 2.39258 1.66016 4.00391 4.15039 4.00391h14.3555v14.4043c0 2.44141 1.66016 4.15039 4.05273 4.15039 2.44141 0 4.15039-1.66016 4.15039-4.15039v-14.4043h14.4043c2.44141 0 4.15039-1.61133 4.15039-4.00391 0-2.44141-1.70898-4.15039-4.15039-4.15039h-14.4043v-14.3555c0-2.49023-1.70898-4.19922-4.15039-4.19922-2.39258 0-4.05273 1.70898-4.05273 4.19922v14.3555h-14.3555c-2.49023 0-4.15039 1.70898-4.15039 4.15039Z"/>
  </g>
  <g transform="matrix(0.2 0 0 0.2 304.924 1933)">
   <path d="m74.8535 28.3203c35.1074 0 63.623-28.4668 63.623-63.5742s-28.5156-63.623-63.623-63.623-63.5742 28.5156-63.5742 63.623 28.4668 63.5742 63.5742 63.5742Zm0-9.08203c-30.127 0-54.4922-24.3652-54.4922-54.4922s24.3652-54.4922 54.4922-54.4922 54.4922 24.3652 54.4922 54.4922-24.3652 54.4922-54.4922 54.4922Zm-28.8574-54.4922c0 2.58789 1.85547 4.39453 4.58984 4.39453h19.7266v19.7754c0 2.68555 1.85547 4.58984 4.44336 4.58984 2.68555 0 4.54102-1.85547 4.54102-4.58984v-19.7754h19.7754c2.68555 0 4.58984-1.80664 4.58984-4.39453 0-2.73438-1.85547-4.58984-4.58984-4.58984h-19.7754v-19.7266c0-2.73438-1.85547-4.63867-4.54102-4.63867-2.58789 0-4.44336 1.9043-4.44336 4.63867v19.7266h-19.7266c-2.73438 0-4.58984 1.85547-4.58984 4.58984Z"/>
  </g>
  <text style="stroke:none;fill:black;font-family:sans-serif;font-size:13;font-weight:bold;" transform="matrix(1 0 0 1 263 1953)">Design Variations</text>
  <text style="stroke:none;fill:black;font-family:sans-serif;font-size:13;" transform="matrix(1 0 0 1 263 1971)">Symbols are supported in up to nine weights and three scales.</text>
  <text style="stroke:none;fill:black;font-family:sans-serif;font-size:13;" transform="matrix(1 0 0 1 263 1989)">For optimal layout with text and other symbols, vertically align</text>
  <text style="stroke:none;fill:black;font-family:sans-serif;font-size:13;" transform="matrix(1 0 0 1 263 2007)">symbols with the adjacent text.</text>
  <line style="fill:none;stroke:#00AEEF;stroke-width:0.5;opacity:1.0;" x1="776" x2="776" y1="1919" y2="1933"/>
  <g transform="matrix(0.2 0 0 0.2 776 1933)">
   <path d="m16.5527 0.78125c2.58789 0 3.85742-0.976562 4.78516-3.71094l6.29883-17.2363h28.8086l6.29883 17.2363c0.927734 2.73438 2.19727 3.71094 4.73633 3.71094 2.58789 0 4.24805-1.5625 4.24805-4.00391 0-0.830078-0.146484-1.61133-0.537109-2.63672l-22.9004-60.9863c-1.12305-2.97852-3.125-4.49219-6.25-4.49219-3.02734 0-5.07812 1.46484-6.15234 4.44336l-22.9004 61.084c-0.390625 1.02539-0.537109 1.80664-0.537109 2.63672 0 2.44141 1.5625 3.95508 4.10156 3.95508Zm13.4766-28.3691 11.8652-32.8613h0.244141l11.8652 32.8613Z"/>
  </g>
  <line style="fill:none;stroke:#00AEEF;stroke-width:0.5;opacity:1.0;" x1="792.836" x2="792.836" y1="1919" y2="1933"/>
  <text style="stroke:none;fill:black;font-family:sans-serif;font-size:13;font-weight:bold;" transform="matrix(1 0 0 1 776 1953)">Margins</text>
  <text style="stroke:none;fill:black;font-family:sans-serif;font-size:13;" transform="matrix(1 0 0 1 776 1971)">Leading and trailing margins on the left and right side of each symbol</text>
  <text style="stroke:none;fill:black;font-family:sans-serif;font-size:13;" transform="matrix(1 0 0 1 776 1989)">can be adjusted by modifying the x-location of the margin guidelines.</text>
  <text style="stroke:none;fill:black;font-family:sans-serif;font-size:13;" transform="matrix(1 0 0 1 776 2007)">Modifications are automatically applied proportionally to all</text>
  <text style="stroke:none;fill:black;font-family:sans-serif;font-size:13;" transform="matrix(1 0 0 1 776 2025)">scales and weights.</text>
  <g transform="matrix(0.2 0 0 0.2 1289 1933)">
   <path d="m14.209 9.32617 8.49609 8.54492c4.29688 4.3457 9.22852 4.05273 13.8672-1.07422l53.4668-58.9355-4.83398-4.88281-53.0762 58.3984c-1.75781 2.00195-3.41797 2.49023-5.76172 0.146484l-5.85938-5.81055c-2.34375-2.29492-1.80664-4.00391 0.195312-5.81055l57.373-54.0039-4.88281-4.83398-57.959 54.4434c-4.93164 4.58984-5.32227 9.47266-1.02539 13.8184Zm32.0801-90.9668c-2.09961 2.05078-2.24609 4.93164-1.07422 6.88477 1.17188 1.80664 3.4668 2.97852 6.68945 2.14844 7.32422-1.70898 14.9414-2.00195 22.0703 2.68555l-2.92969 7.27539c-1.70898 4.15039-0.830078 7.08008 1.85547 9.81445l11.4746 11.5723c2.44141 2.44141 4.49219 2.53906 7.32422 2.05078l5.32227-0.976562 3.32031 3.36914-0.195312 2.7832c-0.195312 2.49023 0.439453 4.39453 2.88086 6.78711l3.80859 3.71094c2.39258 2.39258 5.46875 2.53906 7.8125 0.195312l14.5508-14.5996c2.34375-2.34375 2.24609-5.32227-0.146484-7.71484l-3.85742-3.80859c-2.39258-2.39258-4.24805-3.17383-6.64062-2.97852l-2.88086 0.244141-3.22266-3.17383 1.2207-5.61523c0.634766-2.83203-0.146484-5.0293-3.07617-7.95898l-10.9863-10.9375c-16.6992-16.6016-38.8672-16.2109-53.3203-1.75781Zm7.4707 1.85547c12.1582-8.88672 28.6133-7.37305 39.7461 3.75977l12.1582 12.0605c1.17188 1.17188 1.36719 2.09961 1.02539 3.80859l-1.61133 7.42188 7.51953 7.42188 4.93164-0.292969c1.26953-0.0488281 1.66016 0.0488281 2.63672 1.02539l2.88086 2.88086-12.207 12.207-2.88086-2.88086c-0.976562-0.976562-1.12305-1.36719-1.07422-2.68555l0.341797-4.88281-7.4707-7.42188-7.61719 1.26953c-1.61133 0.341797-2.34375 0.195312-3.56445-0.976562l-10.0098-10.0098c-1.26953-1.17188-1.41602-2.00195-0.634766-3.85742l4.39453-10.4492c-7.8125-7.27539-17.9688-10.4004-28.125-7.42188-0.78125 0.195312-1.07422-0.439453-0.439453-0.976562Z"/>
  </g>
  <text style="stroke:none;fill:black;font-family:sans-serif;font-size:13;font-weight:bold;" transform="matrix(1 0 0 1 1289 1953)">Exporting</text>
  <text style="stroke:none;fill:black;font-family:sans-serif;font-size:13;" transform="matrix(1 0 0 1 1289 1971)">Symbols should be outlined when exporting to ensure the</text>
  <text style="stroke:none;fill:black;font-family:sans-serif;font-size:13;" transform="matrix(1 0 0 1 1289 1989)">design is preserved when submitting to Xcode.</text>
  <text id="template-version" style="stroke:none;fill:black;font-family:sans-serif;font-size:13;text-anchor:end;" transform="matrix(1 0 0 1 3036 1933)">Template v.6.0</text>
  <text style="stroke:none;fill:black;font-family:sans-serif;font-size:13;text-anchor:end;" transform="matrix(1 0 0 1 3036 1951)">Requires Xcode 16 or greater</text>
  <text id="descriptive-name" style="stroke:none;fill:black;font-family:sans-serif;font-size:13;text-anchor:end;" transform="matrix(1 0 0 1 3036 1969)">Generated from dart.logo</text>
  <text style="stroke:none;fill:black;font-family:sans-serif;font-size:13;text-anchor:end;" transform="matrix(1 0 0 1 3036 1987)">Typeset at 100.0 points</text>
  <text style="stroke:none;fill:black;font-family:sans-serif;font-size:13;" transform="matrix(1 0 0 1 263 726)">Small</text>
  <text style="stroke:none;fill:black;font-family:sans-serif;font-size:13;" transform="matrix(1 0 0 1 263 1156)">Medium</text>
  <text style="stroke:none;fill:black;font-family:sans-serif;font-size:13;" transform="matrix(1 0 0 1 263 1586)">Large</text>
 </g>
 <g id="Guides">
  <g id="H-reference" style="fill:#27AAE1;stroke:none;" transform="matrix(1 0 0 1 339 696)">
   <path d="M0.993654 0L3.63775 0L29.3281-67.1323L30.0303-67.1323L30.0303-70.459L28.1226-70.459ZM11.6885-24.4799L46.9815-24.4799L46.2315-26.7285L12.4385-26.7285ZM55.1196 0L57.7637 0L30.6382-70.459L29.4326-70.459L29.4326-67.1323Z"/>
  </g>
  <line id="Baseline-S" style="fill:none;stroke:#27AAE1;opacity:1;stroke-width:0.5;" x1="263" x2="3036" y1="696" y2="696"/>
  <line id="Capline-S" style="fill:none;stroke:#27AAE1;opacity:1;stroke-width:0.5;" x1="263" x2="3036" y1="625.541" y2="625.541"/>
  <g id="H-reference" style="fill:#27AAE1;stroke:none;" transform="matrix(1 0 0 1 339 1126)">
   <path d="M0.993654 0L3.63775 0L29.3281-67.1323L30.0303-67.1323L30.0303-70.459L28.1226-70.459ZM11.6885-24.4799L46.9815-24.4799L46.2315-26.7285L12.4385-26.7285ZM55.1196 0L57.7637 0L30.6382-70.459L29.4326-70.459L29.4326-67.1323Z"/>
  </g>
  <line id="Baseline-M" style="fill:none;stroke:#27AAE1;opacity:1;stroke-width:0.5;" x1="263" x2="3036" y1="1126" y2="1126"/>
  <line id="Capline-M" style="fill:none;stroke:#27AAE1;opacity:1;stroke-width:0.5;" x1="263" x2="3036" y1="1055.54" y2="1055.54"/>
  <g id="H-reference" style="fill:#27AAE1;stroke:none;" transform="matrix(1 0 0 1 339 1556)">
   <path d="M0.993654 0L3.63775 0L29.3281-67.1323L30.0303-67.1323L30.0303-70.459L28.1226-70.459ZM11.6885-24.4799L46.9815-24.4799L46.2315-26.7285L12.4385-26.7285ZM55.1196 0L57.7637 0L30.6382-70.459L29.4326-70.459L29.4326-67.1323Z"/>
  </g>
  <line id="Baseline-L" style="fill:none;stroke:#27AAE1;opacity:1;stroke-width:0.5;" x1="263" x2="3036" y1="1556" y2="1556"/>
  <line id="Capline-L" style="fill:none;stroke:#27AAE1;opacity:1;stroke-width:0.5;" x1="263" x2="3036" y1="1485.54" y2="1485.54"/>
  <line id="right-margin-Black-S" style="fill:none;stroke:#00AEEF;stroke-width:0.5;opacity:1.0;" x1="2982.23" x2="2982.23" y1="600.785" y2="720.121"/>
  <line id="left-margin-Black-S" style="fill:none;stroke:#00AEEF;stroke-width:0.5;opacity:1.0;" x1="2884.57" x2="2884.57" y1="600.785" y2="720.121"/>
  <line id="right-margin-Regular-S" style="fill:none;stroke:#00AEEF;stroke-width:0.5;opacity:1.0;" x1="1496.11" x2="1496.11" y1="600.785" y2="720.121"/>
  <line id="left-margin-Regular-S" style="fill:none;stroke:#00AEEF;stroke-width:0.5;opacity:1.0;" x1="1403.58" x2="1403.58" y1="600.785" y2="720.121"/>
  <line id="right-margin-Ultralight-S" style="fill:none;stroke:#00AEEF;stroke-width:0.5;opacity:1.0;" x1="603.773" x2="603.773" y1="600.785" y2="720.121"/>
  <line id="left-margin-Ultralight-S" style="fill:none;stroke:#00AEEF;stroke-width:0.5;opacity:1.0;" x1="515.649" x2="515.649" y1="600.785" y2="720.121"/>
 </g>
 <g id="Symbols">
  <g id="Black-S" transform="matrix(1 0 0 1 2884.57 696)">
   <path class="SFSymbolsPreviewWireframe" d="M90.27-42.996L73.14-60.123L58.78-74.49C57.52-75.75 54.91-77.25 52.7-77.25C50.8-77.25 48.93-76.867 47.73-76.145L21.21-62.883L7.95-35.26C7.48-34.254 6.85-32.506 6.85-31.395C6.85-28.981 7.91-26.517 9.61-24.764L22.84-11.619C23.16-11.23 23.53-10.835 23.97-10.397L24.52-9.847L26.17-8.193L40.54 6.174L41.09 6.724L75.34 6.724L75.89 6.724L75.89-8.193L90.81-8.193L90.81-8.23L90.81-42.447L90.27-42.996Z"/>
   <path class="monochrome-1 multicolor-0:custom hierarchical-1:tertiary SFSymbolsPreviewWireframe" d="M90.27-42.996L90.27-8.742L75.35-8.742L75.9-8.187L90.82-8.187L90.82-42.447L90.27-42.996Z"/>
   <path class="monochrome-2 multicolor-1:custom hierarchical-2:tertiary SFSymbolsPreviewWireframe" d="M24.52-9.847C22.31-12.064 21.76-14.249 21.76-18.133L21.76-62.333L21.21-62.883L21.21-18.133C21.21-14.249 21.21-13.175 24.52-9.847Z"/>
   <path class="monochrome-0 monochrome-2 multicolor-1:custom hierarchical-0:primary hierarchical-2:tertiary SFSymbolsPreviewWireframe" d="M73.14-60.123C70.4-62.864 68.16-62.883 64.86-62.883L21.21-62.883L21.76-62.333L64.86-62.333C66.51-62.333 70.67-62.611 73.14-60.123Z"/>
   <path class="monochrome-3 multicolor-2:custom hierarchical-3:primary SFSymbolsPreviewWireframe" d="M21.21-18.133C21.21-13.7 21.76-12.613 23.97-10.397L26.18-8.187L75.9-8.187L51.6-35.809L21.21-62.883L21.21-18.133Z"/>
   <path class="monochrome-4 multicolor-3:custom hierarchical-4:primary SFSymbolsPreviewWireframe" d="M73.14-60.123L58.78-74.49C57.52-75.75 54.91-77.25 52.7-77.25C50.8-77.25 48.93-76.867 47.73-76.145L21.21-62.883L73.14-60.123ZM41.09 6.73L75.9 6.73L75.9-8.187L49.93-16.479L26.18-8.187L41.09 6.73Z"/>
   <path class="monochrome-5 multicolor-4:custom hierarchical-5:secondary SFSymbolsPreviewWireframe" d="M23.97-10.397L9.6-24.764C7.9-26.511 6.84-28.981 6.84-31.395C6.84-32.512 7.47-34.26 7.95-35.26L21.21-62.883L23.97-10.397ZM65.41-62.889L21.21-62.889L75.9-8.193L90.82-8.193L90.82-42.447L73.14-60.129C70.66-62.617 68.45-62.889 65.41-62.889Z"/>
  </g>
  <g id="Regular-S" transform="matrix(1 0 0 1 1403.58 696)">
   <path class="SFSymbolsPreviewWireframe" d="M85.18-42.515L69.1-58.587L55.61-72.07C54.43-73.252 51.98-74.66 49.91-74.66C48.12-74.66 46.37-74.301 45.24-73.623L20.34-61.177L7.88-35.255C7.44-34.31 6.85-32.671 6.85-31.628C6.85-29.362 7.84-27.051 9.44-25.405L21.87-13.07C22.16-12.705 22.51-12.334 22.92-11.922L23.44-11.407L24.99-9.854L38.48 3.629L39 4.144L71.17 4.144L71.68 4.144L71.68-9.854L85.69-9.854L85.69-9.889L85.69-41.999L85.18-42.515Z"/>
   <path class="monochrome-1 multicolor-0:custom hierarchical-1:tertiary SFSymbolsPreviewWireframe" d="M85.18-42.515L85.18-10.37L71.18-10.37L71.69-9.848L85.7-9.848L85.7-41.999L85.18-42.515Z"/>
   <path class="monochrome-2 multicolor-1:custom hierarchical-2:tertiary SFSymbolsPreviewWireframe" d="M23.44-11.407C21.37-13.487 20.85-15.538 20.85-19.182L20.85-60.662L20.34-61.177L20.34-19.182C20.33-15.538 20.33-14.53 23.44-11.407Z"/>
   <path class="monochrome-0 monochrome-2 multicolor-1:custom hierarchical-0:primary hierarchical-2:tertiary SFSymbolsPreviewWireframe" d="M69.1-58.587C66.53-61.16 64.42-61.177 61.32-61.177L20.34-61.177L20.85-60.662L61.32-60.662C62.87-60.662 66.78-60.922 69.1-58.587Z"/>
   <path class="monochrome-3 multicolor-2:custom hierarchical-3:primary SFSymbolsPreviewWireframe" d="M20.33-19.182C20.33-15.022 20.85-14.002 22.92-11.922L25-9.848L71.69-9.848L48.87-35.771L20.33-61.177L20.33-19.182Z"/>
   <path class="monochrome-4 multicolor-3:custom hierarchical-4:primary SFSymbolsPreviewWireframe" d="M69.1-58.587L55.61-72.07C54.43-73.252 51.98-74.66 49.91-74.66C48.12-74.66 46.37-74.301 45.24-73.623L20.34-61.177L69.1-58.587ZM39.01 4.15L71.69 4.15L71.69-9.848L47.31-17.63L25-9.848L39.01 4.15Z"/>
   <path class="monochrome-5 multicolor-4:custom hierarchical-5:secondary SFSymbolsPreviewWireframe" d="M22.92-11.922L9.43-25.405C7.83-27.045 6.84-29.362 6.84-31.628C6.84-32.677 7.43-34.316 7.88-35.255L20.33-61.177L22.92-11.922ZM61.84-61.183L20.33-61.183L71.69-9.854L85.7-9.854L85.7-41.999L69.1-58.593C66.76-60.928 64.69-61.183 61.84-61.183Z"/>
  </g>
  <g id="Ultralight-S" transform="matrix(1 0 0 1 515.649 696)">
   <path class="SFSymbolsPreviewWireframe" d="M80.794-42.113L65.61-57.297L52.874-70.033C51.763-71.15 49.447-72.48 47.488-72.48C45.802-72.48 44.149-72.141 43.082-71.5L19.573-59.743L7.816-35.255C7.395-34.363 6.836-32.814 6.836-31.829C6.836-29.688 7.778-27.505 9.283-25.95L21.018-14.297C21.297-13.952 21.626-13.602 22.014-13.213L22.501-12.726L23.968-11.259L36.705 1.477L37.192 1.965L67.559 1.965L68.046 1.965L68.046-11.259L81.27-11.259L81.27-11.292L81.27-41.626L80.794-42.113Z"/>
   <path class="monochrome-1 multicolor-0:custom hierarchical-1:tertiary SFSymbolsPreviewWireframe" d="M80.794-42.113L80.794-11.747L67.57-11.747L68.057-11.254L81.281-11.254L81.281-41.626L80.794-42.113Z"/>
   <path class="monochrome-2 multicolor-1:custom hierarchical-2:tertiary SFSymbolsPreviewWireframe" d="M22.507-12.726C20.547-14.691 20.06-16.629 20.06-20.072L20.06-59.256L19.573-59.743L19.573-20.072C19.568-16.629 19.568-15.676 22.507-12.726Z"/>
   <path class="monochrome-0 monochrome-2 multicolor-1:custom hierarchical-0:primary hierarchical-2:tertiary SFSymbolsPreviewWireframe" d="M65.61-57.297C63.18-59.727 61.193-59.743 58.265-59.743L19.573-59.743L20.06-59.256L58.265-59.256C59.726-59.256 63.416-59.502 65.61-57.297Z"/>
   <path class="monochrome-3 multicolor-2:custom hierarchical-3:primary SFSymbolsPreviewWireframe" d="M19.568-20.072C19.568-16.142 20.06-15.178 22.014-13.213L23.974-11.254L68.057-11.254L46.508-35.742L19.568-59.743L19.568-20.072Z"/>
   <path class="monochrome-4 multicolor-3:custom hierarchical-4:primary SFSymbolsPreviewWireframe" d="M65.61-57.297L52.874-70.033C51.763-71.15 49.447-72.48 47.488-72.48C45.802-72.48 44.149-72.141 43.082-71.5L19.573-59.743L65.61-57.297ZM37.197 1.97L68.057 1.97L68.057-11.254L45.035-18.605L23.974-11.254L37.197 1.97Z"/>
   <path class="monochrome-5 multicolor-4:custom hierarchical-5:secondary SFSymbolsPreviewWireframe" d="M22.014-13.213L9.278-25.95C7.767-27.499 6.831-29.688 6.831-31.829C6.831-32.819 7.389-34.368 7.811-35.255L19.568-59.743L22.014-13.213ZM58.752-59.749L19.568-59.749L68.057-11.259L81.281-11.259L81.281-41.626L65.605-57.302C63.405-59.508 61.451-59.749 58.752-59.749Z"/>
  </g>
 </g>
</svg>
