<?xml version="1.0" encoding="UTF-8"?>
<!--Generator: Apple Native CoreSVG 341-->
<!DOCTYPE svg
PUBLIC "-//W3C//DTD SVG 1.1//EN"
       "http://www.w3.org/Graphics/SVG/1.1/DTD/svg11.dtd">
<svg version="1.1" xmlns="http://www.w3.org/2000/svg" xmlns:xlink="http://www.w3.org/1999/xlink" viewBox="0 0 3300 2200">
 <!--glyph: "", point size: 100.0, font version: "20.0d10e1", template writer version: "138.0.0"-->
 <style>.monochrome-0 {-sfsymbols-motion-group:1;-sfsymbols-layer-tags:-6315fbdabe5e7450}
.monochrome-1 {opacity:0.0;-sfsymbols-clear-behind:true;-sfsymbols-motion-group:0;-sfsymbols-layer-tags:-6315fbdabe5e7450}

.multicolor-0:labelColor {-sfsymbols-motion-group:1;-sfsymbols-layer-tags:-6315fbdabe5e7450}
.multicolor-1:tintColor {opacity:0.0;-sfsymbols-clear-behind:true;-sfsymbols-motion-group:0;-sfsymbols-layer-tags:-6315fbdabe5e7450}

.hierarchical-0:primary {-sfsymbols-motion-group:1;-sfsymbols-layer-tags:-6315fbdabe5e7450}
.hierarchical-1:primary {opacity:0.0;-sfsymbols-clear-behind:true;-sfsymbols-motion-group:0;-sfsymbols-layer-tags:-6315fbdabe5e7450}

.SFSymbolsPreviewWireframe {fill:none;opacity:1.0;stroke:black;stroke-width:0.5}
</style>
 <g id="Notes">
  <rect height="2200" id="artboard" style="fill:white;opacity:1" width="3300" x="0" y="0"/>
  <line style="fill:none;stroke:black;opacity:1;stroke-width:0.5;" x1="263" x2="3036" y1="292" y2="292"/>
  <text style="stroke:none;fill:black;font-family:sans-serif;font-size:13;font-weight:bold;" transform="matrix(1 0 0 1 263 322)">Weight/Scale Variations</text>
  <text style="stroke:none;fill:black;font-family:sans-serif;font-size:13;text-anchor:middle;" transform="matrix(1 0 0 1 559.711 322)">Ultralight</text>
  <text style="stroke:none;fill:black;font-family:sans-serif;font-size:13;text-anchor:middle;" transform="matrix(1 0 0 1 856.422 322)">Thin</text>
  <text style="stroke:none;fill:black;font-family:sans-serif;font-size:13;text-anchor:middle;" transform="matrix(1 0 0 1 1153.13 322)">Light</text>
  <text style="stroke:none;fill:black;font-family:sans-serif;font-size:13;text-anchor:middle;" transform="matrix(1 0 0 1 1449.84 322)">Regular</text>
  <text style="stroke:none;fill:black;font-family:sans-serif;font-size:13;text-anchor:middle;" transform="matrix(1 0 0 1 1746.56 322)">Medium</text>
  <text style="stroke:none;fill:black;font-family:sans-serif;font-size:13;text-anchor:middle;" transform="matrix(1 0 0 1 2043.27 322)">Semibold</text>
  <text style="stroke:none;fill:black;font-family:sans-serif;font-size:13;text-anchor:middle;" transform="matrix(1 0 0 1 2339.98 322)">Bold</text>
  <text style="stroke:none;fill:black;font-family:sans-serif;font-size:13;text-anchor:middle;" transform="matrix(1 0 0 1 2636.69 322)">Heavy</text>
  <text style="stroke:none;fill:black;font-family:sans-serif;font-size:13;text-anchor:middle;" transform="matrix(1 0 0 1 2933.4 322)">Black</text>
  <line style="fill:none;stroke:black;opacity:1;stroke-width:0.5;" x1="263" x2="3036" y1="1903" y2="1903"/>
  <g transform="matrix(0.2 0 0 0.2 263 1933)">
   <path d="m46.2402 4.15039c21.7773 0 39.4531-17.627 39.4531-39.4043s-17.6758-39.4043-39.4531-39.4043c-21.7285 0-39.4043 17.627-39.4043 39.4043s17.6758 39.4043 39.4043 39.4043Zm0-7.42188c-17.6758 0-31.9336-14.3066-31.9336-31.9824s14.2578-31.9824 31.9336-31.9824 31.9824 14.3066 31.9824 31.9824-14.3066 31.9824-31.9824 31.9824Zm-17.9688-31.9824c0 2.14844 1.51367 3.61328 3.75977 3.61328h10.498v10.5957c0 2.19727 1.46484 3.71094 3.61328 3.71094 2.24609 0 3.71094-1.51367 3.71094-3.71094v-10.5957h10.5957c2.19727 0 3.71094-1.46484 3.71094-3.61328 0-2.19727-1.51367-3.71094-3.71094-3.71094h-10.5957v-10.5469c0-2.24609-1.46484-3.75977-3.71094-3.75977-2.14844 0-3.61328 1.51367-3.61328 3.75977v10.5469h-10.498c-2.24609 0-3.75977 1.51367-3.75977 3.71094Z"/>
  </g>
  <g transform="matrix(0.2 0 0 0.2 281.506 1933)">
   <path d="m58.5449 14.5508c27.4902 0 49.8047-22.3145 49.8047-49.8047s-22.3145-49.8047-49.8047-49.8047-49.8047 22.3145-49.8047 49.8047 22.3145 49.8047 49.8047 49.8047Zm0-8.30078c-22.9492 0-41.5039-18.5547-41.5039-41.5039s18.5547-41.5039 41.5039-41.5039 41.5039 18.5547 41.5039 41.5039-18.5547 41.5039-41.5039 41.5039Zm-22.6562-41.5039c0 2.39258 1.66016 4.00391 4.15039 4.00391h14.3555v14.4043c0 2.44141 1.66016 4.15039 4.05273 4.15039 2.44141 0 4.15039-1.66016 4.15039-4.15039v-14.4043h14.4043c2.44141 0 4.15039-1.61133 4.15039-4.00391 0-2.44141-1.70898-4.15039-4.15039-4.15039h-14.4043v-14.3555c0-2.49023-1.70898-4.19922-4.15039-4.19922-2.39258 0-4.05273 1.70898-4.05273 4.19922v14.3555h-14.3555c-2.49023 0-4.15039 1.70898-4.15039 4.15039Z"/>
  </g>
  <g transform="matrix(0.2 0 0 0.2 304.924 1933)">
   <path d="m74.8535 28.3203c35.1074 0 63.623-28.4668 63.623-63.5742s-28.5156-63.623-63.623-63.623-63.5742 28.5156-63.5742 63.623 28.4668 63.5742 63.5742 63.5742Zm0-9.08203c-30.127 0-54.4922-24.3652-54.4922-54.4922s24.3652-54.4922 54.4922-54.4922 54.4922 24.3652 54.4922 54.4922-24.3652 54.4922-54.4922 54.4922Zm-28.8574-54.4922c0 2.58789 1.85547 4.39453 4.58984 4.39453h19.7266v19.7754c0 2.68555 1.85547 4.58984 4.44336 4.58984 2.68555 0 4.54102-1.85547 4.54102-4.58984v-19.7754h19.7754c2.68555 0 4.58984-1.80664 4.58984-4.39453 0-2.73438-1.85547-4.58984-4.58984-4.58984h-19.7754v-19.7266c0-2.73438-1.85547-4.63867-4.54102-4.63867-2.58789 0-4.44336 1.9043-4.44336 4.63867v19.7266h-19.7266c-2.73438 0-4.58984 1.85547-4.58984 4.58984Z"/>
  </g>
  <text style="stroke:none;fill:black;font-family:sans-serif;font-size:13;font-weight:bold;" transform="matrix(1 0 0 1 263 1953)">Design Variations</text>
  <text style="stroke:none;fill:black;font-family:sans-serif;font-size:13;" transform="matrix(1 0 0 1 263 1971)">Symbols are supported in up to nine weights and three scales.</text>
  <text style="stroke:none;fill:black;font-family:sans-serif;font-size:13;" transform="matrix(1 0 0 1 263 1989)">For optimal layout with text and other symbols, vertically align</text>
  <text style="stroke:none;fill:black;font-family:sans-serif;font-size:13;" transform="matrix(1 0 0 1 263 2007)">symbols with the adjacent text.</text>
  <line style="fill:none;stroke:#00AEEF;stroke-width:0.5;opacity:1.0;" x1="776" x2="776" y1="1919" y2="1933"/>
  <g transform="matrix(0.2 0 0 0.2 776 1933)">
   <path d="m16.5527 0.78125c2.58789 0 3.85742-0.976562 4.78516-3.71094l6.29883-17.2363h28.8086l6.29883 17.2363c0.927734 2.73438 2.19727 3.71094 4.73633 3.71094 2.58789 0 4.24805-1.5625 4.24805-4.00391 0-0.830078-0.146484-1.61133-0.537109-2.63672l-22.9004-60.9863c-1.12305-2.97852-3.125-4.49219-6.25-4.49219-3.02734 0-5.07812 1.46484-6.15234 4.44336l-22.9004 61.084c-0.390625 1.02539-0.537109 1.80664-0.537109 2.63672 0 2.44141 1.5625 3.95508 4.10156 3.95508Zm13.4766-28.3691 11.8652-32.8613h0.244141l11.8652 32.8613Z"/>
  </g>
  <line style="fill:none;stroke:#00AEEF;stroke-width:0.5;opacity:1.0;" x1="792.836" x2="792.836" y1="1919" y2="1933"/>
  <text style="stroke:none;fill:black;font-family:sans-serif;font-size:13;font-weight:bold;" transform="matrix(1 0 0 1 776 1953)">Margins</text>
  <text style="stroke:none;fill:black;font-family:sans-serif;font-size:13;" transform="matrix(1 0 0 1 776 1971)">Leading and trailing margins on the left and right side of each symbol</text>
  <text style="stroke:none;fill:black;font-family:sans-serif;font-size:13;" transform="matrix(1 0 0 1 776 1989)">can be adjusted by modifying the x-location of the margin guidelines.</text>
  <text style="stroke:none;fill:black;font-family:sans-serif;font-size:13;" transform="matrix(1 0 0 1 776 2007)">Modifications are automatically applied proportionally to all</text>
  <text style="stroke:none;fill:black;font-family:sans-serif;font-size:13;" transform="matrix(1 0 0 1 776 2025)">scales and weights.</text>
  <g transform="matrix(0.2 0 0 0.2 1289 1933)">
   <path d="m14.209 9.32617 8.49609 8.54492c4.29688 4.3457 9.22852 4.05273 13.8672-1.07422l53.4668-58.9355-4.83398-4.88281-53.0762 58.3984c-1.75781 2.00195-3.41797 2.49023-5.76172 0.146484l-5.85938-5.81055c-2.34375-2.29492-1.80664-4.00391 0.195312-5.81055l57.373-54.0039-4.88281-4.83398-57.959 54.4434c-4.93164 4.58984-5.32227 9.47266-1.02539 13.8184Zm32.0801-90.9668c-2.09961 2.05078-2.24609 4.93164-1.07422 6.88477 1.17188 1.80664 3.4668 2.97852 6.68945 2.14844 7.32422-1.70898 14.9414-2.00195 22.0703 2.68555l-2.92969 7.27539c-1.70898 4.15039-0.830078 7.08008 1.85547 9.81445l11.4746 11.5723c2.44141 2.44141 4.49219 2.53906 7.32422 2.05078l5.32227-0.976562 3.32031 3.36914-0.195312 2.7832c-0.195312 2.49023 0.439453 4.39453 2.88086 6.78711l3.80859 3.71094c2.39258 2.39258 5.46875 2.53906 7.8125 0.195312l14.5508-14.5996c2.34375-2.34375 2.24609-5.32227-0.146484-7.71484l-3.85742-3.80859c-2.39258-2.39258-4.24805-3.17383-6.64062-2.97852l-2.88086 0.244141-3.22266-3.17383 1.2207-5.61523c0.634766-2.83203-0.146484-5.0293-3.07617-7.95898l-10.9863-10.9375c-16.6992-16.6016-38.8672-16.2109-53.3203-1.75781Zm7.4707 1.85547c12.1582-8.88672 28.6133-7.37305 39.7461 3.75977l12.1582 12.0605c1.17188 1.17188 1.36719 2.09961 1.02539 3.80859l-1.61133 7.42188 7.51953 7.42188 4.93164-0.292969c1.26953-0.0488281 1.66016 0.0488281 2.63672 1.02539l2.88086 2.88086-12.207 12.207-2.88086-2.88086c-0.976562-0.976562-1.12305-1.36719-1.07422-2.68555l0.341797-4.88281-7.4707-7.42188-7.61719 1.26953c-1.61133 0.341797-2.34375 0.195312-3.56445-0.976562l-10.0098-10.0098c-1.26953-1.17188-1.41602-2.00195-0.634766-3.85742l4.39453-10.4492c-7.8125-7.27539-17.9688-10.4004-28.125-7.42188-0.78125 0.195312-1.07422-0.439453-0.439453-0.976562Z"/>
  </g>
  <text style="stroke:none;fill:black;font-family:sans-serif;font-size:13;font-weight:bold;" transform="matrix(1 0 0 1 1289 1953)">Exporting</text>
  <text style="stroke:none;fill:black;font-family:sans-serif;font-size:13;" transform="matrix(1 0 0 1 1289 1971)">Symbols should be outlined when exporting to ensure the</text>
  <text style="stroke:none;fill:black;font-family:sans-serif;font-size:13;" transform="matrix(1 0 0 1 1289 1989)">design is preserved when submitting to Xcode.</text>
  <text id="template-version" style="stroke:none;fill:black;font-family:sans-serif;font-size:13;text-anchor:end;" transform="matrix(1 0 0 1 3036 1933)">Template v.6.0</text>
  <text style="stroke:none;fill:black;font-family:sans-serif;font-size:13;text-anchor:end;" transform="matrix(1 0 0 1 3036 1951)">Requires Xcode 16 or greater</text>
  <text id="descriptive-name" style="stroke:none;fill:black;font-family:sans-serif;font-size:13;text-anchor:end;" transform="matrix(1 0 0 1 3036 1969)">Generated from rust.logo</text>
  <text style="stroke:none;fill:black;font-family:sans-serif;font-size:13;text-anchor:end;" transform="matrix(1 0 0 1 3036 1987)">Typeset at 100.0 points</text>
  <text style="stroke:none;fill:black;font-family:sans-serif;font-size:13;" transform="matrix(1 0 0 1 263 726)">Small</text>
  <text style="stroke:none;fill:black;font-family:sans-serif;font-size:13;" transform="matrix(1 0 0 1 263 1156)">Medium</text>
  <text style="stroke:none;fill:black;font-family:sans-serif;font-size:13;" transform="matrix(1 0 0 1 263 1586)">Large</text>
 </g>
 <g id="Guides">
  <g id="H-reference" style="fill:#27AAE1;stroke:none;" transform="matrix(1 0 0 1 339 696)">
   <path d="M0.993654 0L3.63775 0L29.3281-67.1323L30.0303-67.1323L30.0303-70.459L28.1226-70.459ZM11.6885-24.4799L46.9815-24.4799L46.2315-26.7285L12.4385-26.7285ZM55.1196 0L57.7637 0L30.6382-70.459L29.4326-70.459L29.4326-67.1323Z"/>
  </g>
  <line id="Baseline-S" style="fill:none;stroke:#27AAE1;opacity:1;stroke-width:0.5;" x1="263" x2="3036" y1="696" y2="696"/>
  <line id="Capline-S" style="fill:none;stroke:#27AAE1;opacity:1;stroke-width:0.5;" x1="263" x2="3036" y1="625.541" y2="625.541"/>
  <g id="H-reference" style="fill:#27AAE1;stroke:none;" transform="matrix(1 0 0 1 339 1126)">
   <path d="M0.993654 0L3.63775 0L29.3281-67.1323L30.0303-67.1323L30.0303-70.459L28.1226-70.459ZM11.6885-24.4799L46.9815-24.4799L46.2315-26.7285L12.4385-26.7285ZM55.1196 0L57.7637 0L30.6382-70.459L29.4326-70.459L29.4326-67.1323Z"/>
  </g>
  <line id="Baseline-M" style="fill:none;stroke:#27AAE1;opacity:1;stroke-width:0.5;" x1="263" x2="3036" y1="1126" y2="1126"/>
  <line id="Capline-M" style="fill:none;stroke:#27AAE1;opacity:1;stroke-width:0.5;" x1="263" x2="3036" y1="1055.54" y2="1055.54"/>
  <g id="H-reference" style="fill:#27AAE1;stroke:none;" transform="matrix(1 0 0 1 339 1556)">
   <path d="M0.993654 0L3.63775 0L29.3281-67.1323L30.0303-67.1323L30.0303-70.459L28.1226-70.459ZM11.6885-24.4799L46.9815-24.4799L46.2315-26.7285L12.4385-26.7285ZM55.1196 0L57.7637 0L30.6382-70.459L29.4326-70.459L29.4326-67.1323Z"/>
  </g>
  <line id="Baseline-L" style="fill:none;stroke:#27AAE1;opacity:1;stroke-width:0.5;" x1="263" x2="3036" y1="1556" y2="1556"/>
  <line id="Capline-L" style="fill:none;stroke:#27AAE1;opacity:1;stroke-width:0.5;" x1="263" x2="3036" y1="1485.54" y2="1485.54"/>
  <line id="right-margin-Black-S" style="fill:none;stroke:#00AEEF;stroke-width:0.5;opacity:1.0;" x1="2982.23" x2="2982.23" y1="600.785" y2="720.121"/>
  <line id="left-margin-Black-S" style="fill:none;stroke:#00AEEF;stroke-width:0.5;opacity:1.0;" x1="2884.57" x2="2884.57" y1="600.785" y2="720.121"/>
  <line id="right-margin-Regular-S" style="fill:none;stroke:#00AEEF;stroke-width:0.5;opacity:1.0;" x1="1496.11" x2="1496.11" y1="600.785" y2="720.121"/>
  <line id="left-margin-Regular-S" style="fill:none;stroke:#00AEEF;stroke-width:0.5;opacity:1.0;" x1="1403.58" x2="1403.58" y1="600.785" y2="720.121"/>
  <line id="right-margin-Ultralight-S" style="fill:none;stroke:#00AEEF;stroke-width:0.5;opacity:1.0;" x1="603.773" x2="603.773" y1="600.785" y2="720.121"/>
  <line id="left-margin-Ultralight-S" style="fill:none;stroke:#00AEEF;stroke-width:0.5;opacity:1.0;" x1="515.649" x2="515.649" y1="600.785" y2="720.121"/>
 </g>
 <g id="Symbols">
  <g id="Black-S" transform="matrix(1 0 0 1 2884.57 696)">
   <path class="SFSymbolsPreviewWireframe" d="M48.87-72.75C28.22-72.75 11.42-55.938 11.42-35.3C11.42-14.661 28.23 2.151 48.87 2.151C69.51 2.151 86.32-14.661 86.32-35.3C86.32-55.938 69.51-72.75 48.87-72.75Z"/>
   <path class="monochrome-0 multicolor-0:labelColor hierarchical-0:primary SFSymbolsPreviewWireframe" d="M84.23-35.299C84.23-25.922 80.5-16.928 73.87-10.297C67.24-3.666 58.25 0.059 48.87 0.059C39.49 0.059 30.5-3.666 23.87-10.297C17.24-16.928 13.51-25.922 13.51-35.299C13.51-44.677 17.24-53.671 23.87-60.302C30.5-66.933 39.49-70.658 48.87-70.658C58.25-70.658 67.24-66.933 73.87-60.302C80.5-53.671 84.23-44.677 84.23-35.299ZM83.56-38.714L89.08-35.299L83.56-31.885L88.3-27.456L82.23-25.182L86.02-19.914L79.61-18.868L82.3-12.958L75.81-13.187L77.3-6.865L70.98-8.355L71.21-1.866L65.3-4.56L64.26 1.85L58.99-1.937L56.71 4.132L52.28-0.606L48.87 4.908L45.46-0.606L41.03 4.132L38.75-1.937L33.48 1.85L32.44-4.56L26.53-1.866L26.76-8.355L20.44-6.865L21.92-13.187L15.44-12.958L18.13-18.868L11.72-19.914L15.51-25.182L9.44-27.456L14.18-31.885L8.66-35.299L14.18-38.714L9.44-43.143L15.51-45.417L11.72-50.685L18.13-51.731L15.44-57.641L21.92-57.412L20.44-63.734L26.76-62.244L26.53-68.733L32.44-66.039L33.48-72.449L38.75-68.662L41.03-74.73L45.46-69.993L48.87-75.507L52.28-69.993L56.71-74.73L58.99-68.662L64.26-72.449L65.3-66.039L71.21-68.733L70.98-62.244L77.3-63.734L75.81-57.412L82.3-57.641L79.61-51.731L86.02-50.685L82.23-45.417L88.3-43.143L83.56-38.714Z"/>
   <path class="monochrome-1 multicolor-1:tintColor hierarchical-1:primary SFSymbolsPreviewWireframe" d="M48.81-69.422C49.45-69.406 50.06-69.139 50.51-68.679C50.96-68.218 51.21-67.601 51.21-66.959C51.21-66.305 50.95-65.678 50.49-65.216C50.02-64.754 49.4-64.495 48.74-64.495C48.09-64.495 47.46-64.754 47-65.216C46.54-65.678 46.28-66.305 46.28-66.959C46.28-67.288 46.34-67.615 46.47-67.918C46.6-68.222 46.79-68.497 47.03-68.727C47.26-68.956 47.54-69.136 47.85-69.256C48.16-69.375 48.48-69.432 48.81-69.422ZM54.46-65.366C58.78-64.556 62.88-62.814 66.46-60.261C70.05-57.708 73.03-54.405 75.21-50.582L72.3-44.023C71.81-42.89 72.32-41.559 73.45-41.052L79.04-38.572C79.21-36.823 79.23-35.063 79.1-33.311L75.99-33.311C75.68-33.311 75.55-33.105 75.55-32.804L75.55-31.378C75.55-28.019 73.66-27.282 72-27.1C70.41-26.918 68.66-27.765 68.44-28.732C67.5-33.985 65.95-35.102 63.49-37.043C66.55-38.976 69.71-41.836 69.71-45.655C69.71-49.782 66.89-52.381 64.96-53.656C62.25-55.439 59.26-55.796 58.45-55.796L26.28-55.796C30.73-60.764 36.69-64.128 43.24-65.366L47.04-61.389C47.9-60.494 49.31-60.454 50.21-61.318L54.46-65.366ZM19.44-47.128C20.08-47.11 20.69-46.842 21.13-46.382C21.58-45.922 21.83-45.306 21.83-44.664C21.83-44.011 21.57-43.384 21.11-42.922C20.65-42.46 20.02-42.2 19.37-42.2C18.71-42.2 18.09-42.46 17.62-42.922C17.16-43.384 16.9-44.011 16.9-44.664C16.9-44.994 16.97-45.32 17.1-45.624C17.22-45.928 17.41-46.202 17.65-46.432C17.88-46.662 18.16-46.842 18.47-46.961C18.78-47.081 19.11-47.138 19.44-47.128ZM78.18-47.017C78.82-46.999 79.43-46.731 79.88-46.271C80.33-45.811 80.58-45.195 80.58-44.553C80.58-43.9 80.32-43.273 79.85-42.811C79.39-42.349 78.77-42.089 78.11-42.089C77.46-42.089 76.83-42.349 76.37-42.811C75.91-43.273 75.65-43.9 75.65-44.553C75.65-44.883 75.71-45.209 75.84-45.513C75.97-45.817 76.16-46.092 76.39-46.321C76.63-46.551 76.91-46.731 77.22-46.851C77.53-46.97 77.85-47.027 78.18-47.017ZM24.08-46.621L28.37-46.621L28.37-27.258L19.71-27.258C18.64-31.017 18.3-34.948 18.72-38.833L24.03-41.194C25.17-41.701 25.68-43.024 25.17-44.157L24.08-46.621ZM42-46.415L52.23-46.415C52.76-46.415 55.96-45.805 55.96-43.405C55.96-41.416 53.5-40.703 51.48-40.703L41.99-40.703L42-46.415ZM42-32.503L49.84-32.503C50.55-32.503 53.66-32.297 54.65-28.32C54.96-27.1 55.65-23.123 56.12-21.847C56.59-20.421 58.48-17.569 60.5-17.569L73.29-17.569C72.43-16.421 71.49-15.336 70.48-14.321L65.28-15.438C64.07-15.699 62.87-14.923 62.61-13.71L61.37-7.943C57.4-6.142 53.08-5.221 48.72-5.242C44.35-5.262 40.05-6.224 36.09-8.062L34.85-13.829C34.59-15.041 33.4-15.818 32.19-15.556L27.1-14.463C26.15-15.438 25.27-16.476 24.47-17.569L49.24-17.569C49.52-17.569 49.71-17.616 49.71-17.878L49.71-26.64C49.71-26.894 49.52-26.949 49.24-26.949L41.99-26.949L42-32.503ZM30.57-12.435C31.21-12.416 31.82-12.149 32.26-11.689C32.71-11.228 32.96-10.612 32.96-9.971C32.96-9.318 32.7-8.691 32.24-8.229C31.78-7.767 31.15-7.507 30.5-7.507C29.84-7.507 29.22-7.767 28.75-8.229C28.29-8.691 28.03-9.318 28.03-9.971C28.03-10.301 28.1-10.627 28.23-10.931C28.36-11.234 28.54-11.509 28.78-11.739C29.02-11.969 29.3-12.149 29.6-12.268C29.91-12.388 30.24-12.444 30.57-12.435ZM67.05-12.324C67.69-12.305 68.3-12.038 68.75-11.578C69.2-11.118 69.44-10.501 69.44-9.86C69.44-9.207 69.19-8.58 68.72-8.118C68.26-7.656 67.63-7.396 66.98-7.396C66.33-7.396 65.7-7.656 65.24-8.118C64.78-8.58 64.52-9.207 64.52-9.86C64.52-10.19 64.58-10.516 64.71-10.82C64.84-11.123 65.03-11.398 65.26-11.628C65.5-11.858 65.78-12.038 66.09-12.157C66.39-12.277 66.72-12.334 67.05-12.324Z"/>
  </g>
  <g id="Regular-S" transform="matrix(1 0 0 1 1403.58 696)">
   <path class="SFSymbolsPreviewWireframe" d="M46.31-70.437C26.92-70.437 11.14-54.66 11.14-35.292C11.14-15.924 26.93-0.147 46.31-0.147C65.69-0.147 81.47-15.924 81.47-35.292C81.47-54.66 65.69-70.437 46.31-70.437Z"/>
   <path class="monochrome-0 multicolor-0:labelColor hierarchical-0:primary SFSymbolsPreviewWireframe" d="M79.51-35.292C79.51-26.492 76.01-18.052 69.79-11.829C63.56-5.606 55.11-2.11 46.31-2.11C37.5-2.11 29.06-5.606 22.83-11.829C16.6-18.052 13.1-26.492 13.1-35.292C13.1-44.093 16.6-52.533 22.83-58.755C29.06-64.978 37.5-68.474 46.31-68.474C55.11-68.474 63.56-64.978 69.79-58.755C76.01-52.533 79.51-44.093 79.51-35.292ZM78.89-38.497L84.06-35.292L78.89-32.088L83.33-27.932L77.64-25.798L81.19-20.854L75.17-19.872L77.7-14.326L71.61-14.541L73.01-8.608L67.07-10.006L67.29-3.917L61.74-6.445L60.75-0.43L55.81-3.984L53.67 1.711L49.51-2.735L46.31 2.44L43.1-2.735L38.94 1.711L36.81-3.984L31.86-0.43L30.88-6.445L25.33-3.917L25.54-10.006L19.61-8.608L21-14.541L14.91-14.326L17.44-19.872L11.42-20.854L14.98-25.798L9.28-27.932L13.73-32.088L8.55-35.292L13.73-38.497L9.28-42.653L14.98-44.787L11.42-49.731L17.44-50.712L14.91-56.259L21-56.043L19.61-61.976L25.54-60.578L25.33-66.668L30.88-64.14L31.86-70.155L36.81-66.601L38.94-72.296L43.1-67.85L46.31-73.024L49.51-67.85L53.67-72.296L55.81-66.601L60.75-70.155L61.74-64.14L67.29-66.668L67.07-60.578L73.01-61.976L71.61-56.043L77.7-56.259L75.17-50.712L81.19-49.731L77.64-44.787L83.33-42.653L78.89-38.497Z"/>
   <path class="monochrome-1 multicolor-1:tintColor hierarchical-1:primary SFSymbolsPreviewWireframe" d="M46.26-67.314C46.86-67.299 47.43-67.048 47.85-66.616C48.27-66.184 48.5-65.605 48.5-65.002C48.5-64.389 48.26-63.801 47.82-63.367C47.39-62.933 46.8-62.69 46.19-62.69C45.57-62.69 44.99-62.933 44.55-63.367C44.12-63.801 43.87-64.389 43.87-65.002C43.87-65.311 43.94-65.618 44.06-65.903C44.18-66.188 44.35-66.446 44.58-66.661C44.8-66.877 45.06-67.046 45.35-67.158C45.64-67.27 45.95-67.323 46.26-67.314ZM51.55-63.508C55.61-62.747 59.46-61.113 62.83-58.717C66.19-56.321 69-53.222 71.04-49.634L68.31-43.478C67.85-42.415 68.33-41.166 69.39-40.69L74.64-38.363C74.8-36.722 74.82-35.07 74.7-33.426L71.77-33.426C71.48-33.426 71.36-33.233 71.36-32.95L71.36-31.612C71.36-28.46 69.59-27.768 68.02-27.597C66.54-27.426 64.89-28.222 64.68-29.129C63.81-34.058 62.35-35.106 60.04-36.928C62.91-38.742 65.88-41.426 65.88-45.01C65.88-48.883 63.23-51.322 61.42-52.519C58.87-54.192 56.06-54.526 55.3-54.526L25.1-54.526C29.27-59.189 34.87-62.346 41.03-63.508L44.59-59.775C45.39-58.935 46.72-58.898 47.56-59.708L51.55-63.508ZM18.67-46.393C19.27-46.375 19.84-46.124 20.26-45.692C20.68-45.26 20.92-44.682 20.92-44.08C20.92-43.467 20.67-42.879 20.24-42.445C19.8-42.012 19.22-41.768 18.6-41.768C17.99-41.768 17.4-42.012 16.97-42.445C16.53-42.879 16.29-43.467 16.29-44.08C16.29-44.39 16.35-44.696 16.47-44.981C16.59-45.266 16.77-45.524 16.99-45.739C17.21-45.955 17.47-46.124 17.76-46.236C18.05-46.348 18.36-46.401 18.67-46.393ZM73.83-46.288C74.44-46.271 75.01-46.02 75.43-45.588C75.85-45.156 76.08-44.578 76.08-43.976C76.08-43.363 75.84-42.775 75.4-42.341C74.97-41.908 74.38-41.664 73.77-41.664C73.15-41.664 72.56-41.908 72.13-42.341C71.7-42.775 71.45-43.363 71.45-43.976C71.45-44.286 71.52-44.592 71.64-44.877C71.76-45.162 71.93-45.42 72.15-45.635C72.38-45.851 72.64-46.02 72.93-46.132C73.22-46.244 73.52-46.297 73.83-46.288ZM23.03-45.917L27.06-45.917L27.06-27.746L18.92-27.746C17.92-31.273 17.6-34.962 18-38.608L22.98-40.824C24.05-41.3 24.53-42.541 24.06-43.604L23.03-45.917ZM39.86-45.723L49.46-45.723C49.96-45.723 52.97-45.151 52.97-42.898C52.97-41.032 50.66-40.363 48.76-40.363L39.85-40.363L39.86-45.723ZM39.86-32.668L47.21-32.668C47.88-32.668 50.81-32.474 51.74-28.742C52.03-27.597 52.68-23.865 53.11-22.668C53.55-21.329 55.33-18.653 57.23-18.653L69.24-18.653C68.43-17.576 67.55-16.557 66.6-15.605L61.71-16.653C60.58-16.898 59.45-16.17 59.21-15.032L58.05-9.619C54.31-7.93 50.26-7.065 46.16-7.085C42.07-7.104 38.02-8.006 34.31-9.731L33.15-15.144C32.9-16.281 31.79-17.01 30.65-16.764L25.86-15.738C24.98-16.654 24.15-17.627 23.39-18.653L46.66-18.653C46.92-18.653 47.1-18.698 47.1-18.943L47.1-27.166C47.1-27.404 46.92-27.456 46.66-27.456L39.85-27.456L39.86-32.668ZM29.12-13.835C29.72-13.818 30.3-13.566 30.71-13.135C31.13-12.703 31.37-12.125 31.37-11.523C31.37-10.91 31.12-10.321 30.69-9.888C30.26-9.454 29.67-9.211 29.05-9.211C28.44-9.211 27.85-9.454 27.42-9.888C26.98-10.321 26.74-10.91 26.74-11.523C26.74-11.832 26.8-12.138 26.92-12.423C27.04-12.708 27.22-12.966 27.44-13.182C27.66-13.398 27.93-13.566 28.22-13.679C28.5-13.791 28.81-13.844 29.12-13.835ZM63.38-13.731C63.98-13.714 64.55-13.462 64.97-13.031C65.39-12.599 65.63-12.021 65.63-11.419C65.63-10.805 65.38-10.217 64.95-9.784C64.52-9.35 63.93-9.106 63.31-9.106C62.7-9.106 62.11-9.35 61.68-9.784C61.24-10.217 61-10.805 61-11.419C61-11.728 61.06-12.034 61.18-12.319C61.3-12.604 61.48-12.862 61.7-13.078C61.92-13.293 62.19-13.462 62.48-13.575C62.76-13.687 63.07-13.74 63.38-13.731Z"/>
  </g>
  <g id="Ultralight-S" transform="matrix(1 0 0 1 515.649 696)">
   <path class="SFSymbolsPreviewWireframe" d="M44.365-67.478C26.452-67.478 11.873-52.892 11.873-34.986C11.873-17.081 26.459-2.495 44.365-2.495C62.27-2.495 76.856-17.081 76.856-34.986C76.856-52.892 62.27-67.478 44.365-67.478Z"/>
   <path class="monochrome-0 multicolor-0:labelColor hierarchical-0:primary SFSymbolsPreviewWireframe" d="M75.04-34.986C75.04-26.85 71.808-19.047 66.056-13.294C60.303-7.542 52.5-4.31 44.364-4.31C36.228-4.31 28.425-7.542 22.672-13.294C16.919-19.047 13.687-26.85 13.687-34.986C13.687-43.122 16.919-50.925 22.672-56.678C28.425-62.431 36.228-65.663 44.364-65.663C52.5-65.663 60.303-62.431 66.056-56.678C71.808-50.925 75.04-43.122 75.04-34.986ZM74.463-37.949L79.247-34.986L74.463-32.024L78.573-28.181L73.308-26.209L76.594-21.638L71.033-20.73L73.37-15.603L67.741-15.802L69.033-10.317L63.548-11.609L63.747-5.98L58.62-8.317L57.712-2.756L53.141-6.042L51.169-0.777L47.326-4.887L44.364-0.103L41.401-4.887L37.559-0.777L35.586-6.042L31.016-2.756L30.108-8.317L24.981-5.98L25.18-11.609L19.695-10.317L20.987-15.802L15.358-15.603L17.695-20.73L12.134-21.638L15.42-26.209L10.154-28.181L14.265-32.024L9.481-34.986L14.265-37.949L10.154-41.791L15.42-43.764L12.134-48.334L17.695-49.242L15.358-54.369L20.987-54.17L19.695-59.655L25.18-58.363L24.981-63.992L30.108-61.655L31.016-67.216L35.586-63.93L37.559-69.196L41.401-65.085L44.364-69.869L47.326-65.085L51.169-69.196L53.141-63.93L57.712-67.216L58.62-61.655L63.747-63.992L63.548-58.363L69.033-59.655L67.741-54.17L73.37-54.369L71.033-49.242L76.594-48.334L73.308-43.764L78.573-41.791L74.463-37.949Z"/>
   <path class="monochrome-1 multicolor-1:tintColor hierarchical-1:primary SFSymbolsPreviewWireframe" d="M44.316-64.591C44.872-64.576 45.4-64.345 45.788-63.945C46.176-63.546 46.392-63.011 46.392-62.453C46.392-61.886 46.167-61.342 45.766-60.941C45.365-60.541 44.822-60.315 44.255-60.315C43.688-60.315 43.144-60.541 42.743-60.941C42.342-61.342 42.117-61.886 42.117-62.453C42.117-62.739 42.174-63.022 42.285-63.286C42.397-63.549 42.56-63.788 42.765-63.987C42.97-64.186 43.213-64.342 43.479-64.446C43.746-64.55 44.031-64.599 44.316-64.591ZM49.21-61.071C52.963-60.369 56.518-58.857 59.628-56.642C62.737-54.427 65.328-51.562 67.219-48.245L64.696-42.554C64.263-41.571 64.71-40.417 65.686-39.977L70.539-37.825C70.689-36.308 70.708-34.781 70.594-33.261L67.893-33.261C67.625-33.261 67.515-33.082 67.515-32.821L67.515-31.584C67.515-28.67 65.872-28.03 64.428-27.872C63.054-27.714 61.535-28.45 61.342-29.288C60.531-33.845 59.184-34.815 57.053-36.499C59.699-38.176 62.449-40.657 62.449-43.97C62.449-47.551 59.995-49.806 58.325-50.912C55.974-52.459 53.376-52.768 52.675-52.768L24.768-52.768C28.627-57.079 33.799-59.997 39.484-61.071L42.777-57.621C43.519-56.844 44.749-56.81 45.526-57.559L49.21-61.071ZM18.829-45.249C19.386-45.232 19.914-45 20.301-44.601C20.689-44.202 20.905-43.667 20.905-43.111C20.905-42.544 20.68-42 20.279-41.599C19.878-41.198 19.335-40.973 18.768-40.973C18.201-40.973 17.657-41.198 17.256-41.599C16.855-42 16.63-42.544 16.63-43.111C16.63-43.397 16.687-43.68 16.798-43.944C16.91-44.207 17.073-44.445 17.278-44.645C17.483-44.844 17.726-45 17.992-45.104C18.259-45.208 18.544-45.257 18.829-45.249ZM69.797-45.152C70.353-45.136 70.881-44.904 71.268-44.505C71.656-44.106 71.873-43.571 71.872-43.015C71.872-42.448 71.647-41.904 71.246-41.503C70.845-41.102 70.302-40.877 69.735-40.877C69.168-40.877 68.624-41.102 68.223-41.503C67.822-41.904 67.597-42.448 67.597-43.015C67.597-43.301 67.654-43.584 67.765-43.847C67.877-44.111 68.04-44.349 68.245-44.549C68.45-44.748 68.693-44.904 68.96-45.008C69.226-45.111 69.511-45.161 69.797-45.152ZM22.857-44.809L26.583-44.809L26.583-28.01L19.063-28.01C18.134-31.271 17.845-34.681 18.211-38.052L22.816-40.1C23.799-40.54 24.246-41.688 23.806-42.671L22.857-44.809ZM38.405-44.63L47.279-44.63C47.739-44.63 50.516-44.101 50.516-42.018C50.516-40.293 48.386-39.674 46.633-39.674L38.398-39.674L38.405-44.63ZM38.405-32.56L45.203-32.56C45.822-32.56 48.523-32.381 49.382-28.931C49.65-27.872 50.248-24.422 50.654-23.315C51.059-22.078 52.702-19.604 54.455-19.604L65.549-19.604C64.805-18.608 63.992-17.666 63.116-16.785L58.6-17.755C57.548-17.981 56.51-17.308 56.283-16.256L55.211-11.252C51.763-9.69 48.018-8.891 44.233-8.909C40.448-8.926 36.711-9.761 33.278-11.355L32.205-16.359C31.978-17.411 30.947-18.084 29.896-17.858L25.476-16.909C24.656-17.755 23.894-18.655 23.194-19.604L44.688-19.604C44.928-19.604 45.093-19.645 45.093-19.872L45.093-27.474C45.093-27.694 44.928-27.742 44.688-27.742L38.398-27.742L38.405-32.56ZM28.487-15.149C29.043-15.133 29.571-14.901 29.958-14.502C30.346-14.103 30.563-13.568 30.563-13.012C30.563-12.445 30.337-11.901 29.936-11.5C29.536-11.099 28.992-10.874 28.425-10.874C27.858-10.874 27.314-11.099 26.913-11.5C26.512-11.901 26.287-12.445 26.287-13.012C26.287-13.298 26.344-13.581 26.456-13.844C26.567-14.108 26.73-14.346 26.935-14.546C27.14-14.745 27.383-14.901 27.65-15.005C27.916-15.109 28.201-15.158 28.487-15.149ZM60.139-15.053C60.695-15.037 61.223-14.805 61.611-14.406C61.999-14.007 62.215-13.472 62.215-12.916C62.215-12.349 61.99-11.805 61.589-11.404C61.188-11.003 60.644-10.778 60.077-10.778C59.51-10.778 58.967-11.003 58.566-11.404C58.165-11.805 57.94-12.349 57.94-12.916C57.94-13.202 57.997-13.485 58.108-13.748C58.219-14.012 58.382-14.25 58.588-14.449C58.793-14.649 59.036-14.805 59.302-14.909C59.569-15.012 59.853-15.062 60.139-15.053Z"/>
  </g>
 </g>
</svg>
