<?xml version="1.0" encoding="UTF-8"?>
<!--Generator: Apple Native CoreSVG 341-->
<!DOCTYPE svg
PUBLIC "-//W3C//DTD SVG 1.1//EN"
       "http://www.w3.org/Graphics/SVG/1.1/DTD/svg11.dtd">
<svg version="1.1" xmlns="http://www.w3.org/2000/svg" xmlns:xlink="http://www.w3.org/1999/xlink" viewBox="0 0 3300 2200">
 <!--glyph: "", point size: 100.0, font version: "20.0d10e1", template writer version: "138.0.0"-->
 <style>.monochrome-0 {-sfsymbols-motion-group:1;-sfsymbols-layer-tags:3ed50c54b18094f6}
.monochrome-1 {opacity:0.0;-sfsymbols-clear-behind:true;-sfsymbols-motion-group:0;-sfsymbols-always-pulses:true;-sfsymbols-always-rotates:true;-sfsymbols-layer-tags:3ed50c54b18094f6}

.multicolor-0:custom {fill:#F05138;-sfsymbols-motion-group:1;-sfsymbols-layer-tags:3ed50c54b18094f6}
.multicolor-1:custom {fill:#FFFFFF;-sfsymbols-motion-group:0;-sfsymbols-always-pulses:true;-sfsymbols-always-rotates:true;-sfsymbols-layer-tags:3ed50c54b18094f6}

.hierarchical-0:secondary {-sfsymbols-motion-group:1;-sfsymbols-layer-tags:3ed50c54b18094f6}
.hierarchical-1:primary {-sfsymbols-motion-group:0;-sfsymbols-always-rotates:true;-sfsymbols-layer-tags:3ed50c54b18094f6}

.SFSymbolsPreviewWireframe {fill:none;opacity:1.0;stroke:black;stroke-width:0.5}
</style>
 <g id="Notes">
  <rect height="2200" id="artboard" style="fill:white;opacity:1" width="3300" x="0" y="0"/>
  <line style="fill:none;stroke:black;opacity:1;stroke-width:0.5;" x1="263" x2="3036" y1="292" y2="292"/>
  <text style="stroke:none;fill:black;font-family:sans-serif;font-size:13;font-weight:bold;" transform="matrix(1 0 0 1 263 322)">Weight/Scale Variations</text>
  <text style="stroke:none;fill:black;font-family:sans-serif;font-size:13;text-anchor:middle;" transform="matrix(1 0 0 1 559.711 322)">Ultralight</text>
  <text style="stroke:none;fill:black;font-family:sans-serif;font-size:13;text-anchor:middle;" transform="matrix(1 0 0 1 856.422 322)">Thin</text>
  <text style="stroke:none;fill:black;font-family:sans-serif;font-size:13;text-anchor:middle;" transform="matrix(1 0 0 1 1153.13 322)">Light</text>
  <text style="stroke:none;fill:black;font-family:sans-serif;font-size:13;text-anchor:middle;" transform="matrix(1 0 0 1 1449.84 322)">Regular</text>
  <text style="stroke:none;fill:black;font-family:sans-serif;font-size:13;text-anchor:middle;" transform="matrix(1 0 0 1 1746.56 322)">Medium</text>
  <text style="stroke:none;fill:black;font-family:sans-serif;font-size:13;text-anchor:middle;" transform="matrix(1 0 0 1 2043.27 322)">Semibold</text>
  <text style="stroke:none;fill:black;font-family:sans-serif;font-size:13;text-anchor:middle;" transform="matrix(1 0 0 1 2339.98 322)">Bold</text>
  <text style="stroke:none;fill:black;font-family:sans-serif;font-size:13;text-anchor:middle;" transform="matrix(1 0 0 1 2636.69 322)">Heavy</text>
  <text style="stroke:none;fill:black;font-family:sans-serif;font-size:13;text-anchor:middle;" transform="matrix(1 0 0 1 2933.4 322)">Black</text>
  <line style="fill:none;stroke:black;opacity:1;stroke-width:0.5;" x1="263" x2="3036" y1="1903" y2="1903"/>
  <g transform="matrix(0.2 0 0 0.2 263 1933)">
   <path d="m46.2402 4.15039c21.7773 0 39.4531-17.627 39.4531-39.4043s-17.6758-39.4043-39.4531-39.4043c-21.7285 0-39.4043 17.627-39.4043 39.4043s17.6758 39.4043 39.4043 39.4043Zm0-7.42188c-17.6758 0-31.9336-14.3066-31.9336-31.9824s14.2578-31.9824 31.9336-31.9824 31.9824 14.3066 31.9824 31.9824-14.3066 31.9824-31.9824 31.9824Zm-17.9688-31.9824c0 2.14844 1.51367 3.61328 3.75977 3.61328h10.498v10.5957c0 2.19727 1.46484 3.71094 3.61328 3.71094 2.24609 0 3.71094-1.51367 3.71094-3.71094v-10.5957h10.5957c2.19727 0 3.71094-1.46484 3.71094-3.61328 0-2.19727-1.51367-3.71094-3.71094-3.71094h-10.5957v-10.5469c0-2.24609-1.46484-3.75977-3.71094-3.75977-2.14844 0-3.61328 1.51367-3.61328 3.75977v10.5469h-10.498c-2.24609 0-3.75977 1.51367-3.75977 3.71094Z"/>
  </g>
  <g transform="matrix(0.2 0 0 0.2 281.506 1933)">
   <path d="m58.5449 14.5508c27.4902 0 49.8047-22.3145 49.8047-49.8047s-22.3145-49.8047-49.8047-49.8047-49.8047 22.3145-49.8047 49.8047 22.3145 49.8047 49.8047 49.8047Zm0-8.30078c-22.9492 0-41.5039-18.5547-41.5039-41.5039s18.5547-41.5039 41.5039-41.5039 41.5039 18.5547 41.5039 41.5039-18.5547 41.5039-41.5039 41.5039Zm-22.6562-41.5039c0 2.39258 1.66016 4.00391 4.15039 4.00391h14.3555v14.4043c0 2.44141 1.66016 4.15039 4.05273 4.15039 2.44141 0 4.15039-1.66016 4.15039-4.15039v-14.4043h14.4043c2.44141 0 4.15039-1.61133 4.15039-4.00391 0-2.44141-1.70898-4.15039-4.15039-4.15039h-14.4043v-14.3555c0-2.49023-1.70898-4.19922-4.15039-4.19922-2.39258 0-4.05273 1.70898-4.05273 4.19922v14.3555h-14.3555c-2.49023 0-4.15039 1.70898-4.15039 4.15039Z"/>
  </g>
  <g transform="matrix(0.2 0 0 0.2 304.924 1933)">
   <path d="m74.8535 28.3203c35.1074 0 63.623-28.4668 63.623-63.5742s-28.5156-63.623-63.623-63.623-63.5742 28.5156-63.5742 63.623 28.4668 63.5742 63.5742 63.5742Zm0-9.08203c-30.127 0-54.4922-24.3652-54.4922-54.4922s24.3652-54.4922 54.4922-54.4922 54.4922 24.3652 54.4922 54.4922-24.3652 54.4922-54.4922 54.4922Zm-28.8574-54.4922c0 2.58789 1.85547 4.39453 4.58984 4.39453h19.7266v19.7754c0 2.68555 1.85547 4.58984 4.44336 4.58984 2.68555 0 4.54102-1.85547 4.54102-4.58984v-19.7754h19.7754c2.68555 0 4.58984-1.80664 4.58984-4.39453 0-2.73438-1.85547-4.58984-4.58984-4.58984h-19.7754v-19.7266c0-2.73438-1.85547-4.63867-4.54102-4.63867-2.58789 0-4.44336 1.9043-4.44336 4.63867v19.7266h-19.7266c-2.73438 0-4.58984 1.85547-4.58984 4.58984Z"/>
  </g>
  <text style="stroke:none;fill:black;font-family:sans-serif;font-size:13;font-weight:bold;" transform="matrix(1 0 0 1 263 1953)">Design Variations</text>
  <text style="stroke:none;fill:black;font-family:sans-serif;font-size:13;" transform="matrix(1 0 0 1 263 1971)">Symbols are supported in up to nine weights and three scales.</text>
  <text style="stroke:none;fill:black;font-family:sans-serif;font-size:13;" transform="matrix(1 0 0 1 263 1989)">For optimal layout with text and other symbols, vertically align</text>
  <text style="stroke:none;fill:black;font-family:sans-serif;font-size:13;" transform="matrix(1 0 0 1 263 2007)">symbols with the adjacent text.</text>
  <line style="fill:none;stroke:#00AEEF;stroke-width:0.5;opacity:1.0;" x1="776" x2="776" y1="1919" y2="1933"/>
  <g transform="matrix(0.2 0 0 0.2 776 1933)">
   <path d="m16.5527 0.78125c2.58789 0 3.85742-0.976562 4.78516-3.71094l6.29883-17.2363h28.8086l6.29883 17.2363c0.927734 2.73438 2.19727 3.71094 4.73633 3.71094 2.58789 0 4.24805-1.5625 4.24805-4.00391 0-0.830078-0.146484-1.61133-0.537109-2.63672l-22.9004-60.9863c-1.12305-2.97852-3.125-4.49219-6.25-4.49219-3.02734 0-5.07812 1.46484-6.15234 4.44336l-22.9004 61.084c-0.390625 1.02539-0.537109 1.80664-0.537109 2.63672 0 2.44141 1.5625 3.95508 4.10156 3.95508Zm13.4766-28.3691 11.8652-32.8613h0.244141l11.8652 32.8613Z"/>
  </g>
  <line style="fill:none;stroke:#00AEEF;stroke-width:0.5;opacity:1.0;" x1="792.836" x2="792.836" y1="1919" y2="1933"/>
  <text style="stroke:none;fill:black;font-family:sans-serif;font-size:13;font-weight:bold;" transform="matrix(1 0 0 1 776 1953)">Margins</text>
  <text style="stroke:none;fill:black;font-family:sans-serif;font-size:13;" transform="matrix(1 0 0 1 776 1971)">Leading and trailing margins on the left and right side of each symbol</text>
  <text style="stroke:none;fill:black;font-family:sans-serif;font-size:13;" transform="matrix(1 0 0 1 776 1989)">can be adjusted by modifying the x-location of the margin guidelines.</text>
  <text style="stroke:none;fill:black;font-family:sans-serif;font-size:13;" transform="matrix(1 0 0 1 776 2007)">Modifications are automatically applied proportionally to all</text>
  <text style="stroke:none;fill:black;font-family:sans-serif;font-size:13;" transform="matrix(1 0 0 1 776 2025)">scales and weights.</text>
  <g transform="matrix(0.2 0 0 0.2 1289 1933)">
   <path d="m14.209 9.32617 8.49609 8.54492c4.29688 4.3457 9.22852 4.05273 13.8672-1.07422l53.4668-58.9355-4.83398-4.88281-53.0762 58.3984c-1.75781 2.00195-3.41797 2.49023-5.76172 0.146484l-5.85938-5.81055c-2.34375-2.29492-1.80664-4.00391 0.195312-5.81055l57.373-54.0039-4.88281-4.83398-57.959 54.4434c-4.93164 4.58984-5.32227 9.47266-1.02539 13.8184Zm32.0801-90.9668c-2.09961 2.05078-2.24609 4.93164-1.07422 6.88477 1.17188 1.80664 3.4668 2.97852 6.68945 2.14844 7.32422-1.70898 14.9414-2.00195 22.0703 2.68555l-2.92969 7.27539c-1.70898 4.15039-0.830078 7.08008 1.85547 9.81445l11.4746 11.5723c2.44141 2.44141 4.49219 2.53906 7.32422 2.05078l5.32227-0.976562 3.32031 3.36914-0.195312 2.7832c-0.195312 2.49023 0.439453 4.39453 2.88086 6.78711l3.80859 3.71094c2.39258 2.39258 5.46875 2.53906 7.8125 0.195312l14.5508-14.5996c2.34375-2.34375 2.24609-5.32227-0.146484-7.71484l-3.85742-3.80859c-2.39258-2.39258-4.24805-3.17383-6.64062-2.97852l-2.88086 0.244141-3.22266-3.17383 1.2207-5.61523c0.634766-2.83203-0.146484-5.0293-3.07617-7.95898l-10.9863-10.9375c-16.6992-16.6016-38.8672-16.2109-53.3203-1.75781Zm7.4707 1.85547c12.1582-8.88672 28.6133-7.37305 39.7461 3.75977l12.1582 12.0605c1.17188 1.17188 1.36719 2.09961 1.02539 3.80859l-1.61133 7.42188 7.51953 7.42188 4.93164-0.292969c1.26953-0.0488281 1.66016 0.0488281 2.63672 1.02539l2.88086 2.88086-12.207 12.207-2.88086-2.88086c-0.976562-0.976562-1.12305-1.36719-1.07422-2.68555l0.341797-4.88281-7.4707-7.42188-7.61719 1.26953c-1.61133 0.341797-2.34375 0.195312-3.56445-0.976562l-10.0098-10.0098c-1.26953-1.17188-1.41602-2.00195-0.634766-3.85742l4.39453-10.4492c-7.8125-7.27539-17.9688-10.4004-28.125-7.42188-0.78125 0.195312-1.07422-0.439453-0.439453-0.976562Z"/>
  </g>
  <text style="stroke:none;fill:black;font-family:sans-serif;font-size:13;font-weight:bold;" transform="matrix(1 0 0 1 1289 1953)">Exporting</text>
  <text style="stroke:none;fill:black;font-family:sans-serif;font-size:13;" transform="matrix(1 0 0 1 1289 1971)">Symbols should be outlined when exporting to ensure the</text>
  <text style="stroke:none;fill:black;font-family:sans-serif;font-size:13;" transform="matrix(1 0 0 1 1289 1989)">design is preserved when submitting to Xcode.</text>
  <text id="template-version" style="stroke:none;fill:black;font-family:sans-serif;font-size:13;text-anchor:end;" transform="matrix(1 0 0 1 3036 1933)">Template v.6.0</text>
  <text style="stroke:none;fill:black;font-family:sans-serif;font-size:13;text-anchor:end;" transform="matrix(1 0 0 1 3036 1951)">Requires Xcode 16 or greater</text>
  <text id="descriptive-name" style="stroke:none;fill:black;font-family:sans-serif;font-size:13;text-anchor:end;" transform="matrix(1 0 0 1 3036 1969)">Generated from swift.logo</text>
  <text style="stroke:none;fill:black;font-family:sans-serif;font-size:13;text-anchor:end;" transform="matrix(1 0 0 1 3036 1987)">Typeset at 100.0 points</text>
  <text style="stroke:none;fill:black;font-family:sans-serif;font-size:13;" transform="matrix(1 0 0 1 263 726)">Small</text>
  <text style="stroke:none;fill:black;font-family:sans-serif;font-size:13;" transform="matrix(1 0 0 1 263 1156)">Medium</text>
  <text style="stroke:none;fill:black;font-family:sans-serif;font-size:13;" transform="matrix(1 0 0 1 263 1586)">Large</text>
 </g>
 <g id="Guides">
  <g id="H-reference" style="fill:#27AAE1;stroke:none;" transform="matrix(1 0 0 1 339 696)">
   <path d="M0.993654 0L3.63775 0L29.3281-67.1323L30.0303-67.1323L30.0303-70.459L28.1226-70.459ZM11.6885-24.4799L46.9815-24.4799L46.2315-26.7285L12.4385-26.7285ZM55.1196 0L57.7637 0L30.6382-70.459L29.4326-70.459L29.4326-67.1323Z"/>
  </g>
  <line id="Baseline-S" style="fill:none;stroke:#27AAE1;opacity:1;stroke-width:0.5;" x1="263" x2="3036" y1="696" y2="696"/>
  <line id="Capline-S" style="fill:none;stroke:#27AAE1;opacity:1;stroke-width:0.5;" x1="263" x2="3036" y1="625.541" y2="625.541"/>
  <g id="H-reference" style="fill:#27AAE1;stroke:none;" transform="matrix(1 0 0 1 339 1126)">
   <path d="M0.993654 0L3.63775 0L29.3281-67.1323L30.0303-67.1323L30.0303-70.459L28.1226-70.459ZM11.6885-24.4799L46.9815-24.4799L46.2315-26.7285L12.4385-26.7285ZM55.1196 0L57.7637 0L30.6382-70.459L29.4326-70.459L29.4326-67.1323Z"/>
  </g>
  <line id="Baseline-M" style="fill:none;stroke:#27AAE1;opacity:1;stroke-width:0.5;" x1="263" x2="3036" y1="1126" y2="1126"/>
  <line id="Capline-M" style="fill:none;stroke:#27AAE1;opacity:1;stroke-width:0.5;" x1="263" x2="3036" y1="1055.54" y2="1055.54"/>
  <g id="H-reference" style="fill:#27AAE1;stroke:none;" transform="matrix(1 0 0 1 339 1556)">
   <path d="M0.993654 0L3.63775 0L29.3281-67.1323L30.0303-67.1323L30.0303-70.459L28.1226-70.459ZM11.6885-24.4799L46.9815-24.4799L46.2315-26.7285L12.4385-26.7285ZM55.1196 0L57.7637 0L30.6382-70.459L29.4326-70.459L29.4326-67.1323Z"/>
  </g>
  <line id="Baseline-L" style="fill:none;stroke:#27AAE1;opacity:1;stroke-width:0.5;" x1="263" x2="3036" y1="1556" y2="1556"/>
  <line id="Capline-L" style="fill:none;stroke:#27AAE1;opacity:1;stroke-width:0.5;" x1="263" x2="3036" y1="1485.54" y2="1485.54"/>
  <line id="right-margin-Black-S" style="fill:none;stroke:#00AEEF;stroke-width:0.5;opacity:1.0;" x1="2982.23" x2="2982.23" y1="600.785" y2="720.121"/>
  <line id="left-margin-Black-S" style="fill:none;stroke:#00AEEF;stroke-width:0.5;opacity:1.0;" x1="2884.57" x2="2884.57" y1="600.785" y2="720.121"/>
  <line id="right-margin-Regular-S" style="fill:none;stroke:#00AEEF;stroke-width:0.5;opacity:1.0;" x1="1496.11" x2="1496.11" y1="600.785" y2="720.121"/>
  <line id="left-margin-Regular-S" style="fill:none;stroke:#00AEEF;stroke-width:0.5;opacity:1.0;" x1="1403.58" x2="1403.58" y1="600.785" y2="720.121"/>
  <line id="right-margin-Ultralight-S" style="fill:none;stroke:#00AEEF;stroke-width:0.5;opacity:1.0;" x1="603.773" x2="603.773" y1="600.785" y2="720.121"/>
  <line id="left-margin-Ultralight-S" style="fill:none;stroke:#00AEEF;stroke-width:0.5;opacity:1.0;" x1="515.649" x2="515.649" y1="600.785" y2="720.121"/>
 </g>
 <g id="Symbols">
  <g id="Black-S" transform="matrix(1 0 0 1 2884.57 696)">
   <path class="monochrome-0 multicolor-0:custom hierarchical-0:secondary SFSymbolsPreviewWireframe" d="M90.82-53.993C90.82-54.866 90.82-55.66 90.82-56.533C90.74-58.358 90.66-60.263 90.34-62.089C90.03-63.915 89.47-65.661 88.6-67.328C87.73-68.995 86.7-70.503 85.35-71.773C84-73.122 82.49-74.154 80.91-75.027C79.24-75.901 77.5-76.456 75.67-76.774C73.85-77.091 72.03-77.25 70.12-77.25C69.25-77.25 68.46-77.25 67.58-77.25C66.55-77.25 65.6-77.25 64.57-77.25L42.29-77.25L33.09-77.25C32.06-77.25 31.11-77.25 30.08-77.25C29.2-77.25 28.41-77.25 27.54-77.25C27.06-77.25 26.59-77.25 26.19-77.171C24.84-77.091 23.41-77.012 22.07-76.774C20.72-76.536 19.37-76.139 18.1-75.662C17.7-75.504 17.23-75.266 16.83-75.107C15.56-74.472 14.45-73.678 13.34-72.805C13.03-72.487 12.63-72.17 12.31-71.852C10.96-70.503 9.93-68.995 9.06-67.407C8.19-65.74 7.63-63.994 7.32-62.169C7-60.343 6.92-58.517 6.84-56.612C6.84-55.739 6.84-54.945 6.84-54.072C6.84-53.04 6.84-52.088 6.84-51.056L6.84-37.324L6.84-19.543C6.84-18.512 6.84-17.559 6.84-16.527C6.84-15.654 6.84-14.86 6.84-13.987C6.92-12.162 7-10.256 7.32-8.431C7.63-6.605 8.19-4.859 9.06-3.192C9.93-1.525 10.96-0.017 12.31 1.253C13.66 2.602 15.17 3.634 16.75 4.507C18.42 5.381 20.16 5.936 21.99 6.254C23.81 6.571 25.63 6.73 27.54 6.73C28.41 6.73 29.2 6.73 30.08 6.73C31.11 6.73 32.06 6.73 33.09 6.73L64.57 6.73C65.6 6.73 66.55 6.73 67.58 6.73C68.46 6.73 69.25 6.73 70.12 6.73C71.95 6.651 73.85 6.571 75.67 6.254C77.5 5.936 79.24 5.381 80.91 4.507C82.57 3.634 84.08 2.602 85.35 1.253C86.7-0.096 87.73-1.604 88.6-3.192C89.47-4.859 90.03-6.605 90.34-8.431C90.66-10.256 90.82-12.082 90.82-13.987C90.82-14.86 90.82-15.654 90.82-16.527C90.82-17.559 90.82-18.512 90.82-19.543L90.82-51.056C90.82-52.008 90.82-52.961 90.82-53.993Z"/>
   <path class="monochrome-1 multicolor-1:custom hierarchical-1:primary SFSymbolsPreviewWireframe" d="M73.29-25.338C73.37-25.655 73.45-25.973 73.53-26.29C77.02-40.181 68.54-56.692 54.1-65.344C60.45-56.771 63.22-46.373 60.76-37.324C60.53-36.53 60.29-35.736 59.97-34.942C59.65-35.181 59.26-35.419 58.7-35.657C58.7-35.657 44.35-44.547 28.81-60.184C28.41-60.581 37.13-47.722 46.97-37.324C42.29-39.943 29.36-49.389 21.11-56.85C22.15-55.183 23.33-53.516 24.6-52.008C31.42-43.277 40.38-32.561 51.09-24.306C43.56-19.702 32.93-19.305 22.38-24.306C19.77-25.497 17.31-27.005 15.01-28.672C19.45-21.528 26.35-15.337 34.75-11.685C44.75-7.399 54.74-7.637 62.11-11.606C62.11-11.606 62.19-11.606 62.19-11.685C62.51-11.844 62.83-12.082 63.14-12.241C66.71-14.066 73.69-15.892 77.5-8.59C78.61-6.923 80.59-16.448 73.29-25.338Z"/>
  </g>
  <g id="Regular-S" transform="matrix(1 0 0 1 1403.58 696)">
   <path class="monochrome-0 multicolor-0:custom hierarchical-0:secondary SFSymbolsPreviewWireframe" d="M85.7-52.821C85.7-53.641 85.7-54.386 85.7-55.206C85.63-56.92 85.55-58.709 85.25-60.424C84.96-62.138 84.43-63.778 83.61-65.343C82.8-66.908 81.83-68.325 80.56-69.517C79.3-70.784 77.88-71.753 76.39-72.573C74.83-73.393 73.19-73.915 71.48-74.213C69.76-74.511 68.05-74.66 66.26-74.66C65.45-74.66 64.7-74.66 63.88-74.66C62.91-74.66 62.02-74.66 61.05-74.66L40.13-74.66L31.49-74.66C30.52-74.66 29.63-74.66 28.66-74.66C27.84-74.66 27.09-74.66 26.28-74.66C25.83-74.66 25.38-74.66 25.01-74.586C23.74-74.511 22.4-74.437 21.14-74.213C19.87-73.989 18.61-73.617 17.41-73.169C17.04-73.02 16.6-72.797 16.22-72.648C15.03-72.051 13.99-71.306 12.95-70.486C12.65-70.188 12.28-69.89 11.98-69.592C10.71-68.325 9.74-66.908 8.92-65.418C8.11-63.852 7.58-62.212 7.29-60.498C6.99-58.784 6.91-57.069 6.84-55.281C6.84-54.461 6.84-53.715 6.84-52.895C6.84-51.926 6.84-51.032 6.84-50.063L6.84-37.168L6.84-20.472C6.84-19.503 6.84-18.608 6.84-17.639C6.84-16.82 6.84-16.074 6.84-15.254C6.91-13.54 6.99-11.751 7.29-10.037C7.58-8.322 8.11-6.683 8.92-5.117C9.74-3.552 10.71-2.136 11.98-0.943C13.24 0.324 14.66 1.293 16.15 2.113C17.71 2.933 19.35 3.454 21.06 3.753C22.78 4.051 24.49 4.2 26.28 4.2C27.09 4.2 27.84 4.2 28.66 4.2C29.63 4.2 30.52 4.2 31.49 4.2L61.05 4.2C62.02 4.2 62.91 4.2 63.88 4.2C64.7 4.2 65.45 4.2 66.26 4.2C67.98 4.125 69.76 4.051 71.48 3.753C73.19 3.454 74.83 2.933 76.39 2.113C77.96 1.293 79.37 0.324 80.56-0.943C81.83-2.21 82.8-3.627 83.61-5.117C84.43-6.683 84.96-8.322 85.25-10.037C85.55-11.751 85.7-13.465 85.7-15.254C85.7-16.074 85.7-16.82 85.7-17.639C85.7-18.608 85.7-19.503 85.7-20.472L85.7-50.063C85.7-50.957 85.7-51.852 85.7-52.821Z"/>
   <path class="monochrome-1 multicolor-1:custom hierarchical-1:primary SFSymbolsPreviewWireframe" d="M69.24-25.913C69.32-26.211 69.39-26.509 69.47-26.808C72.74-39.852 64.77-55.355 51.22-63.48C57.18-55.43 59.79-45.665 57.48-37.168C57.25-36.423 57.03-35.677 56.73-34.932C56.43-35.156 56.06-35.379 55.54-35.603C55.54-35.603 42.06-43.951 27.47-58.635C27.09-59.008 35.29-46.933 44.52-37.168C40.13-39.628 27.99-48.498 20.24-55.504C21.21-53.939 22.33-52.374 23.52-50.958C29.92-42.758 38.34-32.696 48.39-24.944C41.32-20.621 31.34-20.248 21.44-24.944C18.98-26.062 16.67-27.478 14.51-29.044C18.68-22.335 25.16-16.522 33.05-13.093C42.43-9.068 51.82-9.291 58.74-13.018C58.74-13.018 58.82-13.018 58.82-13.093C59.12-13.242 59.41-13.465 59.71-13.615C63.06-15.329 69.62-17.043 73.19-10.186C74.23-8.621 76.09-17.565 69.24-25.913Z"/>
  </g>
  <g id="Ultralight-S" transform="matrix(1 0 0 1 515.649 696)">
   <path class="monochrome-0 multicolor-0:custom hierarchical-0:secondary SFSymbolsPreviewWireframe" d="M81.281-51.862C81.281-52.636 81.281-53.34 81.281-54.114C81.211-55.732 81.14-57.421 80.859-59.04C80.578-60.658 80.086-62.206 79.313-63.684C78.539-65.162 77.625-66.499 76.43-67.625C75.235-68.821 73.899-69.736 72.493-70.51C71.017-71.284 69.47-71.776 67.853-72.058C66.236-72.339 64.619-72.48 62.932-72.48C62.159-72.48 61.456-72.48 60.682-72.48C59.769-72.48 58.925-72.48 58.011-72.48L38.256-72.48L30.101-72.48C29.187-72.48 28.343-72.48 27.43-72.48C26.656-72.48 25.953-72.48 25.18-72.48C24.758-72.48 24.336-72.48 23.985-72.41C22.79-72.339 21.524-72.269 20.329-72.058C19.134-71.847 17.939-71.495 16.814-71.073C16.462-70.932 16.041-70.721 15.689-70.58C14.564-70.017 13.58-69.313 12.596-68.539C12.315-68.258 11.963-67.976 11.682-67.695C10.487-66.499 9.573-65.162 8.799-63.754C8.026-62.277 7.534-60.728 7.253-59.11C6.972-57.491 6.901-55.873 6.831-54.184C6.831-53.41 6.831-52.706 6.831-51.932C6.831-51.018 6.831-50.173 6.831-49.258L6.831-37.085L6.831-21.322C6.831-20.407 6.831-19.563 6.831-18.648C6.831-17.874 6.831-17.17 6.831-16.396C6.901-14.778 6.972-13.089 7.253-11.47C7.534-9.852 8.026-8.304 8.799-6.826C9.573-5.348 10.487-4.011 11.682-2.885C12.877-1.689 14.213-0.774 15.619 0C17.095 0.774 18.642 1.266 20.259 1.548C21.876 1.829 23.493 1.97 25.18 1.97C25.953 1.97 26.656 1.97 27.43 1.97C28.343 1.97 29.187 1.97 30.101 1.97L58.011 1.97C58.925 1.97 59.769 1.97 60.682 1.97C61.456 1.97 62.159 1.97 62.932 1.97C64.549 1.9 66.236 1.829 67.853 1.548C69.47 1.266 71.017 0.774 72.493 0C73.97-0.774 75.305-1.689 76.43-2.885C77.625-4.082 78.539-5.419 79.313-6.826C80.086-8.304 80.578-9.852 80.859-11.47C81.14-13.089 81.281-14.707 81.281-16.396C81.281-17.17 81.281-17.874 81.281-18.648C81.281-19.563 81.281-20.407 81.281-21.322L81.281-49.258C81.281-50.103 81.281-50.947 81.281-51.862Z"/>
   <path class="monochrome-1 multicolor-1:custom hierarchical-1:primary SFSymbolsPreviewWireframe" d="M65.744-26.459C65.815-26.74 65.885-27.022 65.955-27.303C69.048-39.618 61.526-54.255 48.731-61.925C54.355-54.325 56.816-45.107 54.637-37.085C54.426-36.381 54.215-35.677 53.934-34.974C53.652-35.185 53.301-35.396 52.809-35.607C52.809-35.607 40.084-43.488 26.305-57.351C25.953-57.703 33.686-46.303 42.404-37.085C38.256-39.407 26.797-47.781 19.485-54.395C20.399-52.918 21.454-51.44 22.579-50.103C28.625-42.362 36.569-32.863 46.06-25.544C39.381-21.463 29.96-21.111 20.61-25.544C18.29-26.6 16.111-27.937 14.072-29.414C18.009-23.081 24.125-17.593 31.577-14.356C40.435-10.556 49.294-10.767 55.832-14.285C55.832-14.285 55.902-14.285 55.902-14.356C56.183-14.496 56.464-14.707 56.746-14.848C59.909-16.467 66.096-18.085 69.47-11.611C70.455-10.133 72.212-18.578 65.744-26.459Z"/>
  </g>
 </g>
</svg>
