<?xml version="1.0" encoding="UTF-8"?>
<!--Generator: Apple Native CoreSVG 341-->
<!DOCTYPE svg
PUBLIC "-//W3C//DTD SVG 1.1//EN"
       "http://www.w3.org/Graphics/SVG/1.1/DTD/svg11.dtd">
<svg version="1.1" xmlns="http://www.w3.org/2000/svg" xmlns:xlink="http://www.w3.org/1999/xlink" viewBox="0 0 3300 2200">
 <!--glyph: "", point size: 100.0, font version: "20.0d10e1", template writer version: "138.0.0"-->
 <style>.monochrome-0 {-sfsymbols-motion-group:0;-sfsymbols-layer-tags:41d0df82d58051fb}

.multicolor-0:custom {fill:#F03C2E;-sfsymbols-motion-group:0;-sfsymbols-layer-tags:41d0df82d58051fb}

.hierarchical-0:primary {-sfsymbols-motion-group:0;-sfsymbols-layer-tags:41d0df82d58051fb}

.SFSymbolsPreviewWireframe {fill:none;opacity:1.0;stroke:black;stroke-width:0.5}
</style>
 <g id="Notes">
  <rect height="2200" id="artboard" style="fill:white;opacity:1" width="3300" x="0" y="0"/>
  <line style="fill:none;stroke:black;opacity:1;stroke-width:0.5;" x1="263" x2="3036" y1="292" y2="292"/>
  <text style="stroke:none;fill:black;font-family:sans-serif;font-size:13;font-weight:bold;" transform="matrix(1 0 0 1 263 322)">Weight/Scale Variations</text>
  <text style="stroke:none;fill:black;font-family:sans-serif;font-size:13;text-anchor:middle;" transform="matrix(1 0 0 1 559.711 322)">Ultralight</text>
  <text style="stroke:none;fill:black;font-family:sans-serif;font-size:13;text-anchor:middle;" transform="matrix(1 0 0 1 856.422 322)">Thin</text>
  <text style="stroke:none;fill:black;font-family:sans-serif;font-size:13;text-anchor:middle;" transform="matrix(1 0 0 1 1153.13 322)">Light</text>
  <text style="stroke:none;fill:black;font-family:sans-serif;font-size:13;text-anchor:middle;" transform="matrix(1 0 0 1 1449.84 322)">Regular</text>
  <text style="stroke:none;fill:black;font-family:sans-serif;font-size:13;text-anchor:middle;" transform="matrix(1 0 0 1 1746.56 322)">Medium</text>
  <text style="stroke:none;fill:black;font-family:sans-serif;font-size:13;text-anchor:middle;" transform="matrix(1 0 0 1 2043.27 322)">Semibold</text>
  <text style="stroke:none;fill:black;font-family:sans-serif;font-size:13;text-anchor:middle;" transform="matrix(1 0 0 1 2339.98 322)">Bold</text>
  <text style="stroke:none;fill:black;font-family:sans-serif;font-size:13;text-anchor:middle;" transform="matrix(1 0 0 1 2636.69 322)">Heavy</text>
  <text style="stroke:none;fill:black;font-family:sans-serif;font-size:13;text-anchor:middle;" transform="matrix(1 0 0 1 2933.4 322)">Black</text>
  <line style="fill:none;stroke:black;opacity:1;stroke-width:0.5;" x1="263" x2="3036" y1="1903" y2="1903"/>
  <g transform="matrix(0.2 0 0 0.2 263 1933)">
   <path d="m46.2402 4.15039c21.7773 0 39.4531-17.627 39.4531-39.4043s-17.6758-39.4043-39.4531-39.4043c-21.7285 0-39.4043 17.627-39.4043 39.4043s17.6758 39.4043 39.4043 39.4043Zm0-7.42188c-17.6758 0-31.9336-14.3066-31.9336-31.9824s14.2578-31.9824 31.9336-31.9824 31.9824 14.3066 31.9824 31.9824-14.3066 31.9824-31.9824 31.9824Zm-17.9688-31.9824c0 2.14844 1.51367 3.61328 3.75977 3.61328h10.498v10.5957c0 2.19727 1.46484 3.71094 3.61328 3.71094 2.24609 0 3.71094-1.51367 3.71094-3.71094v-10.5957h10.5957c2.19727 0 3.71094-1.46484 3.71094-3.61328 0-2.19727-1.51367-3.71094-3.71094-3.71094h-10.5957v-10.5469c0-2.24609-1.46484-3.75977-3.71094-3.75977-2.14844 0-3.61328 1.51367-3.61328 3.75977v10.5469h-10.498c-2.24609 0-3.75977 1.51367-3.75977 3.71094Z"/>
  </g>
  <g transform="matrix(0.2 0 0 0.2 281.506 1933)">
   <path d="m58.5449 14.5508c27.4902 0 49.8047-22.3145 49.8047-49.8047s-22.3145-49.8047-49.8047-49.8047-49.8047 22.3145-49.8047 49.8047 22.3145 49.8047 49.8047 49.8047Zm0-8.30078c-22.9492 0-41.5039-18.5547-41.5039-41.5039s18.5547-41.5039 41.5039-41.5039 41.5039 18.5547 41.5039 41.5039-18.5547 41.5039-41.5039 41.5039Zm-22.6562-41.5039c0 2.39258 1.66016 4.00391 4.15039 4.00391h14.3555v14.4043c0 2.44141 1.66016 4.15039 4.05273 4.15039 2.44141 0 4.15039-1.66016 4.15039-4.15039v-14.4043h14.4043c2.44141 0 4.15039-1.61133 4.15039-4.00391 0-2.44141-1.70898-4.15039-4.15039-4.15039h-14.4043v-14.3555c0-2.49023-1.70898-4.19922-4.15039-4.19922-2.39258 0-4.05273 1.70898-4.05273 4.19922v14.3555h-14.3555c-2.49023 0-4.15039 1.70898-4.15039 4.15039Z"/>
  </g>
  <g transform="matrix(0.2 0 0 0.2 304.924 1933)">
   <path d="m74.8535 28.3203c35.1074 0 63.623-28.4668 63.623-63.5742s-28.5156-63.623-63.623-63.623-63.5742 28.5156-63.5742 63.623 28.4668 63.5742 63.5742 63.5742Zm0-9.08203c-30.127 0-54.4922-24.3652-54.4922-54.4922s24.3652-54.4922 54.4922-54.4922 54.4922 24.3652 54.4922 54.4922-24.3652 54.4922-54.4922 54.4922Zm-28.8574-54.4922c0 2.58789 1.85547 4.39453 4.58984 4.39453h19.7266v19.7754c0 2.68555 1.85547 4.58984 4.44336 4.58984 2.68555 0 4.54102-1.85547 4.54102-4.58984v-19.7754h19.7754c2.68555 0 4.58984-1.80664 4.58984-4.39453 0-2.73438-1.85547-4.58984-4.58984-4.58984h-19.7754v-19.7266c0-2.73438-1.85547-4.63867-4.54102-4.63867-2.58789 0-4.44336 1.9043-4.44336 4.63867v19.7266h-19.7266c-2.73438 0-4.58984 1.85547-4.58984 4.58984Z"/>
  </g>
  <text style="stroke:none;fill:black;font-family:sans-serif;font-size:13;font-weight:bold;" transform="matrix(1 0 0 1 263 1953)">Design Variations</text>
  <text style="stroke:none;fill:black;font-family:sans-serif;font-size:13;" transform="matrix(1 0 0 1 263 1971)">Symbols are supported in up to nine weights and three scales.</text>
  <text style="stroke:none;fill:black;font-family:sans-serif;font-size:13;" transform="matrix(1 0 0 1 263 1989)">For optimal layout with text and other symbols, vertically align</text>
  <text style="stroke:none;fill:black;font-family:sans-serif;font-size:13;" transform="matrix(1 0 0 1 263 2007)">symbols with the adjacent text.</text>
  <line style="fill:none;stroke:#00AEEF;stroke-width:0.5;opacity:1.0;" x1="776" x2="776" y1="1919" y2="1933"/>
  <g transform="matrix(0.2 0 0 0.2 776 1933)">
   <path d="m16.5527 0.78125c2.58789 0 3.85742-0.976562 4.78516-3.71094l6.29883-17.2363h28.8086l6.29883 17.2363c0.927734 2.73438 2.19727 3.71094 4.73633 3.71094 2.58789 0 4.24805-1.5625 4.24805-4.00391 0-0.830078-0.146484-1.61133-0.537109-2.63672l-22.9004-60.9863c-1.12305-2.97852-3.125-4.49219-6.25-4.49219-3.02734 0-5.07812 1.46484-6.15234 4.44336l-22.9004 61.084c-0.390625 1.02539-0.537109 1.80664-0.537109 2.63672 0 2.44141 1.5625 3.95508 4.10156 3.95508Zm13.4766-28.3691 11.8652-32.8613h0.244141l11.8652 32.8613Z"/>
  </g>
  <line style="fill:none;stroke:#00AEEF;stroke-width:0.5;opacity:1.0;" x1="792.836" x2="792.836" y1="1919" y2="1933"/>
  <text style="stroke:none;fill:black;font-family:sans-serif;font-size:13;font-weight:bold;" transform="matrix(1 0 0 1 776 1953)">Margins</text>
  <text style="stroke:none;fill:black;font-family:sans-serif;font-size:13;" transform="matrix(1 0 0 1 776 1971)">Leading and trailing margins on the left and right side of each symbol</text>
  <text style="stroke:none;fill:black;font-family:sans-serif;font-size:13;" transform="matrix(1 0 0 1 776 1989)">can be adjusted by modifying the x-location of the margin guidelines.</text>
  <text style="stroke:none;fill:black;font-family:sans-serif;font-size:13;" transform="matrix(1 0 0 1 776 2007)">Modifications are automatically applied proportionally to all</text>
  <text style="stroke:none;fill:black;font-family:sans-serif;font-size:13;" transform="matrix(1 0 0 1 776 2025)">scales and weights.</text>
  <g transform="matrix(0.2 0 0 0.2 1289 1933)">
   <path d="m14.209 9.32617 8.49609 8.54492c4.29688 4.3457 9.22852 4.05273 13.8672-1.07422l53.4668-58.9355-4.83398-4.88281-53.0762 58.3984c-1.75781 2.00195-3.41797 2.49023-5.76172 0.146484l-5.85938-5.81055c-2.34375-2.29492-1.80664-4.00391 0.195312-5.81055l57.373-54.0039-4.88281-4.83398-57.959 54.4434c-4.93164 4.58984-5.32227 9.47266-1.02539 13.8184Zm32.0801-90.9668c-2.09961 2.05078-2.24609 4.93164-1.07422 6.88477 1.17188 1.80664 3.4668 2.97852 6.68945 2.14844 7.32422-1.70898 14.9414-2.00195 22.0703 2.68555l-2.92969 7.27539c-1.70898 4.15039-0.830078 7.08008 1.85547 9.81445l11.4746 11.5723c2.44141 2.44141 4.49219 2.53906 7.32422 2.05078l5.32227-0.976562 3.32031 3.36914-0.195312 2.7832c-0.195312 2.49023 0.439453 4.39453 2.88086 6.78711l3.80859 3.71094c2.39258 2.39258 5.46875 2.53906 7.8125 0.195312l14.5508-14.5996c2.34375-2.34375 2.24609-5.32227-0.146484-7.71484l-3.85742-3.80859c-2.39258-2.39258-4.24805-3.17383-6.64062-2.97852l-2.88086 0.244141-3.22266-3.17383 1.2207-5.61523c0.634766-2.83203-0.146484-5.0293-3.07617-7.95898l-10.9863-10.9375c-16.6992-16.6016-38.8672-16.2109-53.3203-1.75781Zm7.4707 1.85547c12.1582-8.88672 28.6133-7.37305 39.7461 3.75977l12.1582 12.0605c1.17188 1.17188 1.36719 2.09961 1.02539 3.80859l-1.61133 7.42188 7.51953 7.42188 4.93164-0.292969c1.26953-0.0488281 1.66016 0.0488281 2.63672 1.02539l2.88086 2.88086-12.207 12.207-2.88086-2.88086c-0.976562-0.976562-1.12305-1.36719-1.07422-2.68555l0.341797-4.88281-7.4707-7.42188-7.61719 1.26953c-1.61133 0.341797-2.34375 0.195312-3.56445-0.976562l-10.0098-10.0098c-1.26953-1.17188-1.41602-2.00195-0.634766-3.85742l4.39453-10.4492c-7.8125-7.27539-17.9688-10.4004-28.125-7.42188-0.78125 0.195312-1.07422-0.439453-0.439453-0.976562Z"/>
  </g>
  <text style="stroke:none;fill:black;font-family:sans-serif;font-size:13;font-weight:bold;" transform="matrix(1 0 0 1 1289 1953)">Exporting</text>
  <text style="stroke:none;fill:black;font-family:sans-serif;font-size:13;" transform="matrix(1 0 0 1 1289 1971)">Symbols should be outlined when exporting to ensure the</text>
  <text style="stroke:none;fill:black;font-family:sans-serif;font-size:13;" transform="matrix(1 0 0 1 1289 1989)">design is preserved when submitting to Xcode.</text>
  <text id="template-version" style="stroke:none;fill:black;font-family:sans-serif;font-size:13;text-anchor:end;" transform="matrix(1 0 0 1 3036 1933)">Template v.6.0</text>
  <text style="stroke:none;fill:black;font-family:sans-serif;font-size:13;text-anchor:end;" transform="matrix(1 0 0 1 3036 1951)">Requires Xcode 16 or greater</text>
  <text id="descriptive-name" style="stroke:none;fill:black;font-family:sans-serif;font-size:13;text-anchor:end;" transform="matrix(1 0 0 1 3036 1969)">Generated from git.icon</text>
  <text style="stroke:none;fill:black;font-family:sans-serif;font-size:13;text-anchor:end;" transform="matrix(1 0 0 1 3036 1987)">Typeset at 100.0 points</text>
  <text style="stroke:none;fill:black;font-family:sans-serif;font-size:13;" transform="matrix(1 0 0 1 263 726)">Small</text>
  <text style="stroke:none;fill:black;font-family:sans-serif;font-size:13;" transform="matrix(1 0 0 1 263 1156)">Medium</text>
  <text style="stroke:none;fill:black;font-family:sans-serif;font-size:13;" transform="matrix(1 0 0 1 263 1586)">Large</text>
 </g>
 <g id="Guides">
  <g id="H-reference" style="fill:#27AAE1;stroke:none;" transform="matrix(1 0 0 1 339 696)">
   <path d="M0.993654 0L3.63775 0L29.3281-67.1323L30.0303-67.1323L30.0303-70.459L28.1226-70.459ZM11.6885-24.4799L46.9815-24.4799L46.2315-26.7285L12.4385-26.7285ZM55.1196 0L57.7637 0L30.6382-70.459L29.4326-70.459L29.4326-67.1323Z"/>
  </g>
  <line id="Baseline-S" style="fill:none;stroke:#27AAE1;opacity:1;stroke-width:0.5;" x1="263" x2="3036" y1="696" y2="696"/>
  <line id="Capline-S" style="fill:none;stroke:#27AAE1;opacity:1;stroke-width:0.5;" x1="263" x2="3036" y1="625.541" y2="625.541"/>
  <g id="H-reference" style="fill:#27AAE1;stroke:none;" transform="matrix(1 0 0 1 339 1126)">
   <path d="M0.993654 0L3.63775 0L29.3281-67.1323L30.0303-67.1323L30.0303-70.459L28.1226-70.459ZM11.6885-24.4799L46.9815-24.4799L46.2315-26.7285L12.4385-26.7285ZM55.1196 0L57.7637 0L30.6382-70.459L29.4326-70.459L29.4326-67.1323Z"/>
  </g>
  <line id="Baseline-M" style="fill:none;stroke:#27AAE1;opacity:1;stroke-width:0.5;" x1="263" x2="3036" y1="1126" y2="1126"/>
  <line id="Capline-M" style="fill:none;stroke:#27AAE1;opacity:1;stroke-width:0.5;" x1="263" x2="3036" y1="1055.54" y2="1055.54"/>
  <g id="H-reference" style="fill:#27AAE1;stroke:none;" transform="matrix(1 0 0 1 339 1556)">
   <path d="M0.993654 0L3.63775 0L29.3281-67.1323L30.0303-67.1323L30.0303-70.459L28.1226-70.459ZM11.6885-24.4799L46.9815-24.4799L46.2315-26.7285L12.4385-26.7285ZM55.1196 0L57.7637 0L30.6382-70.459L29.4326-70.459L29.4326-67.1323Z"/>
  </g>
  <line id="Baseline-L" style="fill:none;stroke:#27AAE1;opacity:1;stroke-width:0.5;" x1="263" x2="3036" y1="1556" y2="1556"/>
  <line id="Capline-L" style="fill:none;stroke:#27AAE1;opacity:1;stroke-width:0.5;" x1="263" x2="3036" y1="1485.54" y2="1485.54"/>
  <line id="right-margin-Black-S" style="fill:none;stroke:#00AEEF;stroke-width:0.5;opacity:1.0;" x1="2982.23" x2="2982.23" y1="600.785" y2="720.121"/>
  <line id="left-margin-Black-S" style="fill:none;stroke:#00AEEF;stroke-width:0.5;opacity:1.0;" x1="2884.57" x2="2884.57" y1="600.785" y2="720.121"/>
  <line id="right-margin-Regular-S" style="fill:none;stroke:#00AEEF;stroke-width:0.5;opacity:1.0;" x1="1496.11" x2="1496.11" y1="600.785" y2="720.121"/>
  <line id="left-margin-Regular-S" style="fill:none;stroke:#00AEEF;stroke-width:0.5;opacity:1.0;" x1="1403.58" x2="1403.58" y1="600.785" y2="720.121"/>
  <line id="right-margin-Ultralight-S" style="fill:none;stroke:#00AEEF;stroke-width:0.5;opacity:1.0;" x1="603.773" x2="603.773" y1="600.785" y2="720.121"/>
  <line id="left-margin-Ultralight-S" style="fill:none;stroke:#00AEEF;stroke-width:0.5;opacity:1.0;" x1="515.649" x2="515.649" y1="600.785" y2="720.121"/>
 </g>
 <g id="Symbols">
  <g id="Black-S" transform="matrix(1 0 0 1 2884.57 696)">
   <path class="monochrome-0 multicolor-0:custom hierarchical-0:primary SFSymbolsPreviewWireframe" d="M89.24-39L52.57-75.665C52.07-76.167 51.47-76.566 50.82-76.838C50.16-77.11 49.46-77.25 48.74-77.25C48.03-77.25 47.33-77.11 46.67-76.838C46.02-76.566 45.42-76.167 44.92-75.665L37.31-68.05L46.96-58.393C48.1-58.778 49.32-58.839 50.49-58.567C51.66-58.295 52.72-57.701 53.57-56.854C54.43-56 55.02-54.924 55.29-53.747C55.56-52.571 55.49-51.343 55.1-50.203L64.41-40.895C65.55-41.291 66.78-41.358 67.95-41.088C69.13-40.818 70.21-40.221 71.06-39.367C71.66-38.77 72.13-38.06 72.45-37.28C72.78-36.499 72.94-35.662 72.94-34.817C72.94-33.972 72.78-33.135 72.45-32.355C72.13-31.574 71.66-30.865 71.06-30.267C69.85-29.06 68.21-28.382 66.51-28.382C64.8-28.382 63.16-29.06 61.95-30.267C61.05-31.166 60.44-32.311 60.19-33.556C59.95-34.802 60.07-36.093 60.56-37.268L51.87-45.948L51.87-23.102C52.79-22.649 53.59-21.985 54.19-21.163C54.8-20.342 55.21-19.388 55.37-18.379C55.54-17.371 55.46-16.337 55.15-15.364C54.84-14.391 54.3-13.506 53.57-12.783C52.98-12.186 52.27-11.712 51.49-11.388C50.71-11.065 49.87-10.898 49.02-10.898C48.18-10.898 47.34-11.065 46.56-11.388C45.78-11.712 45.07-12.186 44.47-12.783C43.88-13.381 43.4-14.09 43.08-14.871C42.75-15.652 42.59-16.489 42.59-17.334C42.59-18.179 42.75-19.016 43.08-19.797C43.4-20.578 43.88-21.287 44.47-21.884C45.08-22.488 45.79-22.966 46.58-23.291L46.58-46.347C45.79-46.67 45.08-47.145 44.48-47.745C43.88-48.345 43.4-49.057 43.08-49.841C42.76-50.625 42.59-51.466 42.59-52.315C42.59-53.163 42.76-54.003 43.09-54.786L33.57-64.31L8.42-39.172C7.41-38.157 6.84-36.781 6.84-35.346C6.84-33.912 7.41-32.536 8.42-31.521L45.09 5.148C46.11 6.161 47.48 6.73 48.92 6.73C50.35 6.73 51.73 6.161 52.74 5.148L89.24-31.349C90.25-32.365 90.82-33.74 90.82-35.175C90.82-36.609 90.25-37.985 89.24-39Z"/>
  </g>
  <g id="Regular-S" transform="matrix(1 0 0 1 1403.58 696)">
   <path class="monochrome-0 multicolor-0:custom hierarchical-0:primary SFSymbolsPreviewWireframe" d="M84.21-38.765L49.78-73.172C49.31-73.644 48.75-74.018 48.13-74.273C47.52-74.529 46.86-74.66 46.19-74.66C45.52-74.66 44.86-74.529 44.25-74.273C43.63-74.018 43.07-73.644 42.6-73.172L35.45-66.026L44.52-56.964C45.58-57.326 46.73-57.382 47.83-57.127C48.92-56.872 49.93-56.315 50.72-55.52C51.52-54.718 52.08-53.708 52.34-52.605C52.59-51.501 52.53-50.348 52.16-49.278L60.9-40.544C61.97-40.915 63.12-40.978 64.23-40.724C65.33-40.471 66.34-39.911 67.14-39.11C67.71-38.549 68.15-37.883 68.45-37.151C68.76-36.418 68.91-35.633 68.91-34.84C68.91-34.047 68.76-33.261 68.45-32.529C68.15-31.796 67.71-31.13 67.14-30.57C66.01-29.437 64.47-28.801 62.87-28.801C61.26-28.801 59.73-29.437 58.59-30.57C57.75-31.413 57.18-32.487 56.94-33.656C56.71-34.825 56.83-36.037 57.28-37.14L49.13-45.285L49.13-23.845C49.99-23.421 50.74-22.797 51.31-22.026C51.88-21.256 52.26-20.36 52.41-19.413C52.57-18.467 52.5-17.497 52.2-16.584C51.91-15.671 51.4-14.841 50.72-14.162C50.16-13.601 49.5-13.157 48.76-12.853C48.03-12.55 47.24-12.393 46.45-12.393C45.66-12.393 44.87-12.55 44.14-12.853C43.41-13.157 42.74-13.601 42.18-14.162C41.62-14.723 41.17-15.389 40.87-16.121C40.56-16.854 40.41-17.64 40.41-18.433C40.41-19.226 40.56-20.011 40.87-20.744C41.17-21.477 41.62-22.142 42.18-22.703C42.74-23.269 43.42-23.718 44.16-24.023L44.16-45.66C43.42-45.963 42.75-46.409 42.19-46.972C41.62-47.534 41.17-48.203 40.87-48.939C40.57-49.675 40.41-50.463 40.41-51.26C40.41-52.056 40.57-52.845 40.88-53.58L31.94-62.517L8.33-38.926C7.37-37.973 6.84-36.682 6.84-35.336C6.84-33.99 7.37-32.699 8.33-31.746L42.76 2.665C43.71 3.616 45 4.15 46.35 4.15C47.7 4.15 48.99 3.616 49.94 2.665L84.21-31.585C85.17-32.538 85.7-33.829 85.7-35.175C85.7-36.521 85.17-37.812 84.21-38.765Z"/>
  </g>
  <g id="Ultralight-S" transform="matrix(1 0 0 1 515.649 696)">
   <path class="monochrome-0 multicolor-0:custom hierarchical-0:primary SFSymbolsPreviewWireframe" d="M79.878-38.571L47.372-71.075C46.927-71.52 46.398-71.874 45.816-72.115C45.234-72.356 44.611-72.48 43.981-72.48C43.351-72.48 42.727-72.356 42.145-72.115C41.563-71.874 41.034-71.52 40.589-71.075L33.842-64.324L42.402-55.763C43.409-56.105 44.491-56.158 45.526-55.917C46.561-55.676 47.508-55.15 48.26-54.399C49.016-53.642 49.544-52.687 49.783-51.645C50.022-50.602 49.963-49.513 49.612-48.503L57.866-40.251C58.877-40.602 59.966-40.661 61.009-40.422C62.052-40.182 63.007-39.654 63.763-38.896C64.293-38.367 64.713-37.738 65-37.046C65.286-36.354 65.434-35.612 65.434-34.863C65.434-34.114 65.286-33.372 65-32.68C64.713-31.988 64.293-31.359 63.763-30.829C62.692-29.759 61.24-29.158 59.726-29.158C58.212-29.158 56.76-29.759 55.689-30.829C54.893-31.626 54.351-32.64 54.131-33.745C53.911-34.849 54.022-35.994 54.451-37.035L46.754-44.73L46.754-24.477C47.566-24.075 48.272-23.486 48.811-22.758C49.35-22.03 49.709-21.184 49.856-20.29C50.003-19.396 49.935-18.48 49.658-17.617C49.381-16.754 48.902-15.97 48.261-15.329C47.731-14.8 47.103-14.379 46.41-14.093C45.718-13.806 44.976-13.658 44.227-13.658C43.478-13.658 42.736-13.806 42.044-14.093C41.352-14.379 40.723-14.8 40.194-15.329C39.664-15.859 39.243-16.488 38.957-17.18C38.67-17.872 38.522-18.614 38.522-19.363C38.522-20.113 38.67-20.855 38.957-21.547C39.243-22.239 39.664-22.868 40.194-23.398C40.727-23.932 41.362-24.356 42.06-24.645L42.06-45.084C41.365-45.371 40.733-45.792 40.2-46.323C39.668-46.855 39.246-47.487 38.958-48.182C38.67-48.877 38.523-49.622 38.524-50.375C38.526-51.127 38.675-51.872 38.965-52.566L30.524-61.008L8.234-38.723C7.335-37.823 6.831-36.603 6.831-35.332C6.831-34.06 7.335-32.841 8.234-31.941L40.741 0.567C41.641 1.465 42.861 1.97 44.132 1.97C45.403 1.97 46.623 1.465 47.523 0.567L79.878-31.788C80.776-32.688 81.281-33.908 81.281-35.18C81.281-36.451 80.776-37.671 79.878-38.571Z"/>
  </g>
 </g>
</svg>
