<svg width="137" height="137" viewBox="0 0 137 137" fill="none" xmlns="http://www.w3.org/2000/svg">
<path d="M28.6502 108.5L5.38016 85.23C2.62016 82.4 0.910156 78.4 0.910156 74.49C0.910156 72.68 1.93016 69.85 2.70016 68.23L24.1802 23.49L28.6502 108.5Z" fill="#01579B"/>
<path d="M108.3 27.96L85.0299 4.68997C82.9999 2.64997 78.7699 0.219971 75.1899 0.219971C72.1099 0.219971 69.0899 0.839971 67.1399 2.00997L24.1899 23.49L108.3 27.96Z" fill="#40C4FF"/>
<path d="M56.39 136.24H112.77V112.08L70.71 98.6499L32.23 112.08L56.39 136.24Z" fill="#40C4FF"/>
<path d="M24.1802 95.97C24.1802 103.15 25.0802 104.91 28.6502 108.5L32.2302 112.08H112.77L73.4002 67.34L24.1802 23.49V95.97Z" fill="#29B6F6"/>
<path d="M95.7702 23.48H24.1802L112.77 112.07H136.93V56.59L108.29 27.95C104.27 23.92 100.7 23.48 95.7702 23.48Z" fill="#01579B"/>
<path opacity="0.2" d="M29.5503 109.39C25.9703 105.8 25.0803 102.26 25.0803 95.97V24.38L24.1903 23.49V95.97C24.1803 102.26 24.1803 104 29.5503 109.39Z" fill="white"/>
<path opacity="0.2" d="M136.04 55.7V111.18H111.88L112.77 112.08H136.93V56.59L136.04 55.7Z" fill="#263238"/>
<path opacity="0.2" d="M108.3 27.96C103.86 23.52 100.23 23.49 94.8799 23.49H24.1899L25.0799 24.38H94.8799C97.5499 24.38 104.29 23.93 108.3 27.96Z" fill="white"/>
<path opacity="0.2" d="M136.04 55.7L108.3 27.96L85.0299 4.68997C82.9999 2.64997 78.7699 0.219971 75.1899 0.219971C72.1099 0.219971 69.0899 0.839971 67.1399 2.00997L24.1899 23.49L2.70992 68.23C1.93992 69.86 0.919922 72.69 0.919922 74.49C0.919922 78.4 2.63992 82.39 5.38992 85.23L26.8299 106.52C27.3399 107.15 27.9399 107.79 28.6499 108.5L29.5399 109.39L32.2199 112.07L55.4899 135.34L56.3799 136.23H111.86H112.75V112.07H136.91V112.01V56.59L136.04 55.7Z" fill="url(#paint0_radial_13_116)"/>
<defs>
<radialGradient id="paint0_radial_13_116" cx="0" cy="0" r="1" gradientUnits="userSpaceOnUse" gradientTransform="translate(68.9149 68.2272) scale(68 68)">
<stop stop-color="white" stop-opacity="0.1"/>
<stop offset="1" stop-color="white" stop-opacity="0"/>
</radialGradient>
</defs>
</svg>
